<?xml version="1.0" standalone="no"?>
<!DOCTYPE svg PUBLIC "-//W3C//DTD SVG 1.1//EN" "http://www.w3.org/Graphics/SVG/1.1/DTD/svg11.dtd" >
<svg xmlns="http://www.w3.org/2000/svg" xmlns:xlink="http://www.w3.org/1999/xlink" version="1.1">
<metadata>
Created by FontForge 20170910 at Thu Jun 30 12:40:50 2016
 By Jimmy Wärting
(c) Copyright , FFDec v.9.0.0.
</metadata>
<defs>
<font id="FOT-ReggaeStdB" horiz-adv-x="707" >
  <font-face 
    font-family="FOT-Reggae Std B"
    font-weight="400"
    font-style="italic"
    font-stretch="normal"
    units-per-em="1024"
    panose-1="0 0 0 0 0 0 0 0 0 0"
    ascent="819"
    descent="-205"
    x-height="570"
    cap-height="798"
    bbox="-28 -235 1024 1092"
    underline-thickness="60"
    underline-position="-30"
    slope="10"
    unicode-range="U+0020-FF5E"
  />
<missing-glyph horiz-adv-x="512" 
d="M0 683v-683h438v683h-438zM365 610v-537h-292v537h292z" />
    <glyph glyph-name=".notdef" horiz-adv-x="512" 
d="M0 683v-683h438v683h-438zM365 610v-537h-292v537h292z" />
    <glyph glyph-name="glyph1" horiz-adv-x="0" 
 />
    <glyph glyph-name="glyph2" horiz-adv-x="512" 
 />
    <glyph glyph-name="space" unicode=" " horiz-adv-x="353" 
 />
    <glyph glyph-name="exclam" unicode="!" horiz-adv-x="410" 
d="M308 129l-122 -151l-101 189l223 -38v0zM338 820l-123 -624h-57l-21 601l201 23v0z" />
    <glyph glyph-name="quotedbl" unicode="&#x22;" horiz-adv-x="512" 
d="M222 798l-72 -318h-13l-78 318h163v0zM450 798l-86 -318h-13l-66 318h165v0z" />
    <glyph glyph-name="numbersign" unicode="#" 
d="M461 501l-157 23l-55 -193l164 -16l48 186v0zM695 265l-205 -27l-27 -238h-131l58 225l-178 -23l-62 -216h-10l29 210l-146 -18v176l167 -18l27 199l-144 20v20l153 18l29 205h129l-56 -192l165 19l50 194h12l-21 -189l149 18v-176l-165 22l-21 -187l198 -20v-22v0z" />
    <glyph glyph-name="dollar" unicode="$" 
d="M490 197v0v3q-1 20 -25 42q-25 22 -65 48l-9 -171q41 1 67 17t32 61v0zM313 512l-11 179q-33 -8 -51 -29t-19 -52v-3q0 -24 23 -47q22 -24 58 -48v0zM647 211v0q-6 -64 -41 -111q-35 -46 -92 -72q-58 -25 -129 -28l-8 -144h-23l-9 146q-53 8 -112 42q-59 35 -112 88
t-88 118l7 7q48 -37 102 -65t105 -46q52 -18 91 -24l-13 214q-45 26 -88 54q-44 28 -81 58q-36 30 -58 62t-23 66v8q1 4 1 8q11 58 43 99q32 42 78 68q46 25 99 35l-4 66h139l-4 -72q61 -18 114 -69q53 -50 93 -135l-6 -6q-55 45 -107 71q-52 27 -99 38l-13 -232
q43 -25 85 -51t77 -55q34 -29 55 -61q21 -33 21 -69v-4v-4v0z" />
    <glyph glyph-name="percent" unicode="%" horiz-adv-x="1024" 
d="M834 203v0q-1 40 -8 78q-8 38 -21 63t-30 26q-16 -1 -29 -26t-21 -63q-9 -38 -9 -78q0 -38 9 -76q8 -38 21 -63t29 -26q17 1 30 26t21 63t8 76v0zM305 595v0q0 39 -8 76q-8 38 -22 64q-13 25 -29 26q-16 -1 -30 -26q-13 -26 -20 -64q-8 -37 -8 -76q0 -40 8 -78t21 -63
t29 -26q16 1 29 26q14 25 22 63t8 78v0zM967 203v0q-1 -61 -28 -112q-28 -50 -71 -81q-44 -30 -93 -31q-48 1 -91 32q-44 31 -71 82q-28 51 -29 110q1 45 19 85q17 40 46 72t62 50t64 19q49 -1 93 -33q43 -32 71 -83q27 -51 28 -110v0zM876 790l-646 -828l-23 14l497 845
l172 -31v0zM437 595v0q0 -44 -18 -85q-18 -40 -47 -72q-28 -32 -62 -50q-33 -18 -64 -19q-49 1 -92 33q-44 32 -71 83t-28 110q1 62 28 112q27 51 71 82q43 30 92 31q48 -1 92 -32q43 -31 71 -82q27 -51 28 -111v0z" />
    <glyph glyph-name="ampersand" unicode="&#x26;" horiz-adv-x="774" 
d="M460 172v0q-51 37 -96 77t-83 80q-31 -28 -53 -58q-22 -29 -29 -61q-2 -7 -3 -15v-15q0 -30 12 -57q13 -26 40 -43q28 -17 73 -18q29 0 66 27q36 27 73 83v0zM449 665v0q-1 29 -15 49q-15 20 -39 30q-23 10 -50 10q-17 0 -34 -19t-27 -47q-11 -28 -11 -57q0 -25 9 -54
t26 -62q39 26 71 50q32 25 50 50q19 24 20 50v0zM777 -3l-8 -9q-53 24 -107 53q-53 29 -104 61q-53 -60 -114 -91q-60 -32 -125 -32q-73 1 -125 20q-52 20 -85 52t-49 69q-16 38 -16 75q0 9 2 19q1 9 2 17q15 62 55 112t93 91q-34 49 -53 95t-19 86q0 32 17 68q16 35 47 66
q30 31 72 51q42 19 94 20q49 -1 93 -24q44 -24 72 -66t29 -99q-1 -42 -25 -80t-63 -73t-83 -69q27 -35 59 -73q33 -39 71 -79q15 31 29 68t27 79l139 -66q-22 -52 -47 -97q-24 -44 -51 -83q39 -38 83 -79q43 -40 90 -82v0z" />
    <glyph glyph-name="quotesingle" unicode="'" horiz-adv-x="353" 
d="M270 798l-92 -319h-10l-84 319h186v0z" />
    <glyph glyph-name="parenleft" unicode="(" horiz-adv-x="410" 
d="M363 -159l-10 -5q-69 63 -123 133t-92 139q-38 70 -58 132q-20 61 -20 108t20 109t58 131q38 70 92 140t123 134l10 -6q-48 -94 -81 -187t-50 -176q-17 -82 -17 -144q0 -63 17 -146t50 -176t81 -186v0z" />
    <glyph glyph-name="parenright" unicode=")" horiz-adv-x="410" 
d="M349 348v0q0 -47 -20 -108q-20 -62 -58 -132q-38 -69 -92 -139t-123 -133l-10 6q48 93 81 186q33 92 50 175t17 146q0 62 -17 144q-17 83 -50 176t-81 187l10 6q69 -64 123 -134t92 -140q38 -69 58 -131t20 -109v0z" />
    <glyph glyph-name="asterisk" unicode="*" horiz-adv-x="512" 
d="M475 603l-130 -46l26 -136l-10 -5l-105 90l-105 -90l-10 5l26 136l-130 46v11l130 47l-26 136l10 6l105 -90l105 90l10 -6l-26 -136l130 -47v-11v0z" />
    <glyph glyph-name="plus" unicode="+" 
d="M681 284l-250 -74l-69 -238h-15l-78 238l-244 74v11l244 69l78 235h15l69 -235l250 -69v-11v0z" />
    <glyph glyph-name="comma" unicode="," horiz-adv-x="353" 
d="M320 66l-182 -225l-8 6l62 155l-122 39l108 160l142 -135v0z" />
    <glyph glyph-name="hyphen" unicode="-" horiz-adv-x="500" 
d="M473 282l-424 -100v202l424 -94v-8v0z" />
    <glyph glyph-name="period" unicode="." horiz-adv-x="353" 
d="M304 143l-167 -167l-81 210l248 -43v0z" />
    <glyph glyph-name="slash" unicode="/" horiz-adv-x="410" 
d="M421 812l-396 -872h-13l267 905l142 -33v0z" />
    <glyph glyph-name="zero" unicode="0" 
d="M498 400v0q0 62 -11 122q-11 61 -30 111t-46 80q-26 30 -57 31q-32 -1 -58 -30q-27 -30 -46 -80t-30 -110q-10 -61 -11 -124q1 -66 11 -127q11 -62 30 -112q20 -49 46 -78t58 -30q30 1 57 30q26 29 45 78q20 50 31 112q11 61 11 127v0zM665 400v0q-1 -97 -28 -174
q-26 -78 -71 -133t-100 -84t-112 -30q-58 0 -113 28q-55 27 -99 81q-45 54 -72 132q-26 78 -27 180q1 91 27 168q27 76 72 133q44 56 99 88q55 31 113 31q57 0 112 -31q55 -30 100 -87q45 -56 71 -132q27 -77 28 -170v0z" />
    <glyph glyph-name="one" unicode="1" 
d="M493 823l-29 -823h-123l-18 643l-216 37v10l386 133v0z" />
    <glyph glyph-name="two" unicode="2" 
d="M651 0h-597q1 1 32 35q30 34 78 89q48 56 102 122q54 67 102 132q48 66 78 119q30 54 31 84q0 56 -26 85t-74 29q-37 0 -85 -10q-47 -11 -101 -34q-53 -24 -106 -61l-8 7q83 119 160 171q76 53 154 52q68 0 126 -29q58 -28 94 -77t37 -112q-1 -45 -35 -104t-88 -124
q-54 -64 -115 -125t-117 -109t-93 -75l451 105v-170v0z" />
    <glyph glyph-name="three" unicode="3" 
d="M659 252v0q1 -49 -28 -93q-28 -44 -95 -80q-68 -36 -185 -61q-116 -24 -293 -32l-3 14q155 47 248 88q94 42 135 83q42 42 41 88q0 29 -30 59q-31 30 -89 51t-140 22l-1 12q78 40 129 80q52 39 77 72q26 32 26 50q-1 24 -12 47q-12 23 -31 38q-20 15 -44 15q-39 0 -80 -6
q-40 -7 -89 -24q-50 -17 -115 -47l-6 9q78 90 151 136q74 47 150 47q58 -1 103 -19q45 -19 76 -48q31 -30 48 -62q16 -33 16 -62q0 -3 -1 -6v-5q-2 -21 -22 -52t-63 -66q-42 -34 -113 -65q75 -14 129 -43t82 -66t29 -74v0z" />
    <glyph glyph-name="four" unicode="4" 
d="M674 119h-130l-5 -119h-107l-5 119h-409l311 702l176 -25l-351 -599l268 39l-16 364h159l-15 -345l124 18v-154v0z" />
    <glyph glyph-name="five" unicode="5" 
d="M637 246v0q1 -47 -25 -89q-25 -42 -85 -78q-60 -35 -162 -59q-103 -24 -256 -34l-3 14q128 45 207 88q79 42 114 83q36 41 35 82q0 26 -40 57q-41 31 -125 56q-84 26 -213 36l71 409l442 -29v-13l-312 -90l-44 -210q193 -31 294 -85q101 -55 102 -138v0z" />
    <glyph glyph-name="six" unicode="6" 
d="M510 225v0q-1 85 -33 125t-80 40q-58 0 -104 -17q-47 -16 -77 -49v-9q-1 -4 -1 -9q1 -69 26 -127q24 -58 62 -93q37 -35 77 -36q34 1 63 25q29 23 48 63q19 39 19 87v0zM665 244v0q-1 -70 -41 -130t-107 -97q-68 -37 -151 -38q-71 1 -129 27q-59 26 -101 69t-65 95
t-24 105q1 78 40 161q38 82 104 158q65 77 146 136q81 60 166 92l8 -7q-77 -69 -132 -142q-54 -74 -92 -146q-37 -73 -65 -139q26 28 62 49t76 32t79 11q54 -1 106 -32q51 -32 85 -85t35 -119v0z" />
    <glyph glyph-name="seven" unicode="7" 
d="M655 772l-304 -786l-114 14l228 729l-356 -84l-31 153l577 -26v0z" />
    <glyph glyph-name="eight" unicode="8" 
d="M508 178v0q-1 40 -28 75q-27 36 -71 68t-97 61q-48 -53 -77 -100q-28 -47 -29 -87q1 -45 26 -79q25 -33 62 -51q36 -19 72 -19q30 1 63 20q33 20 56 50q22 30 23 62v0zM516 638v0q-44 51 -89 84t-77 37h-3h-4q-28 -1 -53 -18q-25 -16 -44 -42q-19 -27 -30 -56t-11 -55
q0 -17 5 -29q4 -12 14 -19q12 -9 33 -20q22 -10 50 -22q47 36 100 71q52 36 109 69v0zM669 213v0q-1 -66 -43 -119t-111 -83q-69 -31 -149 -32q-86 1 -158 29t-116 76q-44 49 -45 111q1 42 49 104q47 61 129 132q-46 27 -84 53q-39 25 -60 51q-7 9 -10 20t-3 24q0 35 21 76
t58 79q37 37 85 61q49 23 104 24q54 0 113 -16q58 -17 113 -47q54 -31 98 -74l-91 -116l-12 18t-12 17q-40 -36 -79 -71t-76 -69q49 -23 98 -49q49 -27 90 -58t66 -66t25 -75v0z" />
    <glyph glyph-name="nine" unicode="9" 
d="M493 474v0v9q1 5 1 9q-1 69 -26 127q-24 58 -62 93q-37 35 -77 36q-34 0 -63 -24t-48 -64q-19 -39 -19 -87q1 -85 33 -125t80 -40q58 0 104 17q47 16 77 49v0zM662 523v0q-1 -78 -40 -160q-38 -83 -104 -159q-65 -76 -146 -135q-81 -60 -166 -92l-8 7q77 69 132 142
q54 73 92 145q37 73 65 139q-26 -28 -62 -49t-76 -32t-79 -11q-54 1 -106 32q-51 32 -85 85t-35 120q1 69 41 130q40 60 107 97q68 37 151 38q71 0 129 -26q59 -27 101 -70t65 -95q23 -53 24 -106v0z" />
    <glyph glyph-name="colon" unicode=":" horiz-adv-x="410" 
d="M337 145l-167 -167l-82 210l249 -43v0zM337 540l-167 -168l-82 211l249 -43v0z" />
    <glyph glyph-name="semicolon" unicode=";" horiz-adv-x="410" 
d="M320 66l-182 -225l-8 6l62 155l-122 39l108 160l142 -135v0zM337 540l-167 -168l-82 211l249 -43v0z" />
    <glyph glyph-name="less" unicode="&#x3c;" 
d="M598 -39l-8 -6l-526 330l526 330l8 -7l-306 -324l306 -323v0z" />
    <glyph glyph-name="equal" unicode="=" 
d="M656 159l-584 -74v156l584 -72v-10v0zM656 411l-584 -74v156l584 -72v-10v0z" />
    <glyph glyph-name="greater" unicode="&#x3e;" 
d="M643 285l-526 -330l-8 7l306 322l-306 324l8 7l526 -330v0z" />
    <glyph glyph-name="question" unicode="?" 
d="M452 129l-123 -151l-100 189l223 -38v0zM644 572v0q0 -48 -69 -102q-69 -53 -206 -104l9 -151h-10l-118 178q86 33 134 62q47 29 66 55q19 25 18 49q0 56 -15 100q-14 44 -37 69q-22 26 -46 26q-46 -1 -97 -47q-50 -47 -104 -128l-106 136q79 55 166 80t184 25
q40 -1 80 -21q41 -21 75 -56t55 -79t21 -92v0z" />
    <glyph glyph-name="at" unicode="@" horiz-adv-x="924" 
d="M535 284l-16 270q-10 14 -23 22q-14 9 -29 9q-24 -1 -43 -28t-32 -67q-13 -41 -20 -82q-6 -42 -6 -72q0 -48 17 -69q16 -22 45 -22q25 0 53 11q28 10 54 28v0zM877 454v0q-1 -44 -18 -95t-48 -98q-30 -46 -69 -75q-39 -30 -82 -31q-47 1 -75 21q-27 20 -41 54
q-18 -18 -43 -36q-25 -17 -54 -29q-30 -11 -62 -12q-78 0 -117 43q-40 43 -40 134q0 58 16 114q15 55 43 100t67 72t86 28q24 0 44 -6q19 -5 32 -13l-1 22h150l-11 -337v-6q0 -31 7 -47q7 -17 20 -17q23 1 41 33q19 32 29 81q11 48 11 100t-19 105q-19 54 -55 98
q-37 45 -89 73q-53 27 -120 28q-61 -1 -118 -31q-57 -31 -103 -82q-45 -51 -71 -115q-27 -64 -27 -131q0 -71 26 -132q25 -62 68 -109q43 -46 97 -73q54 -26 112 -27q73 1 142 20q69 20 129 52q61 31 109 68l6 -9q-52 -61 -116 -108t-133 -74t-138 -28q-86 1 -161 33
t-133 89q-57 58 -90 134q-32 76 -33 165q1 86 37 162q35 75 97 133q61 58 138 92q78 33 162 33q90 0 162 -31q73 -31 126 -83t81 -117t29 -135v0z" />
    <glyph glyph-name="A" unicode="A" horiz-adv-x="770" 
d="M514 271l-154 332l-159 -284l313 -48v0zM768 2l-121 -13l-120 258l-406 -71l-106 -187h-16l280 809l162 24l327 -820v0z" />
    <glyph glyph-name="B" unicode="B" horiz-adv-x="754" 
d="M541 259v0q1 23 -21 45q-22 23 -82 39q-59 15 -170 17l-7 -325q112 26 174 63q61 37 84 78q23 42 22 83v0zM518 613v0q1 4 1 8v8q0 23 -10 44t-29 35q-18 13 -45 14q-43 0 -82 -5q-38 -5 -78 -17l-6 -307q88 42 142 85t79 79q26 36 28 56v0zM720 262v0q0 -86 -70 -147
q-70 -62 -202 -95t-320 -34l-38 813h187l-1 -55q44 27 90 41q45 14 91 14q77 -1 126 -21q50 -20 73 -55q24 -35 24 -80v-12q-1 -7 -2 -13q-5 -49 -52 -98t-146 -91q78 -6 131 -33q54 -26 81 -63q28 -36 28 -71v0z" />
    <glyph glyph-name="C" unicode="C" horiz-adv-x="755" 
d="M722 753l-57 -167q-65 66 -135 99t-143 33q-35 0 -66 -29q-30 -29 -53 -76q-22 -47 -35 -103q-13 -57 -13 -113q0 -77 22 -140t76 -112q53 -50 145 -88q92 -37 231 -65l-2 -13q-232 1 -374 43t-206 119t-63 180q1 123 33 216q31 93 84 156t118 95q66 32 134 32
q80 0 159 -17q79 -16 145 -50v0z" />
    <glyph glyph-name="D" unicode="D" horiz-adv-x="824" 
d="M580 288v0q8 30 12 60q4 31 4 62q0 70 -18 132q-17 61 -48 102t-71 47q-11 1 -21 2t-21 1q-36 0 -72 -9t-71 -28l-14 -613q99 33 166 74t104 85q38 43 50 85v0zM744 294v0q-46 -151 -198 -229q-151 -78 -418 -79l-38 812h187l-2 -94q44 46 98 70q53 24 112 24
q83 -1 146 -49q63 -49 99 -129q36 -81 36 -179q0 -36 -5 -73q-6 -37 -17 -74v0z" />
    <glyph glyph-name="E" unicode="E" horiz-adv-x="706" 
d="M664 79l-536 -89l-38 809h187l-2 -78l368 88v-166l-369 36l-7 -259l324 75v-162l-325 46l-6 -247l404 -43v-10v0z" />
    <glyph glyph-name="F" unicode="F" horiz-adv-x="660" 
d="M625 643l-351 36l-6 -286l311 76v-163l-312 46l-8 -352h-131l-38 799h187l-2 -77l350 87v-166v0z" />
    <glyph glyph-name="G" unicode="G" horiz-adv-x="809" 
d="M749 456l-26 -477h-10h-20q-230 1 -372 43t-207 119q-66 77 -65 180q1 123 33 216q31 94 84 156q53 63 118 95q66 32 134 32q80 0 159 -17q79 -16 145 -50l-57 -167q-65 66 -135 103q-69 37 -143 38q-35 -1 -67 -31q-31 -30 -55 -78q-25 -49 -39 -107q-13 -57 -14 -114
q0 -71 18 -129q19 -59 64 -104t122 -79q78 -33 195 -56l-23 272l-216 51v12l377 92v0z" />
    <glyph glyph-name="H" unicode="H" horiz-adv-x="829" 
d="M740 798l-29 -798h-134l-14 389l-300 -42l-12 -347h-132l-29 798h190l-12 -316l294 -52l-14 368h192v0z" />
    <glyph glyph-name="I" unicode="I" horiz-adv-x="381" 
d="M287 798l-29 -798h-135l-29 798h193v0z" />
    <glyph glyph-name="J" unicode="J" horiz-adv-x="527" 
d="M429 798l-18 -615q-3 -80 -22 -124q-19 -45 -47 -63q-27 -17 -58 -17q-37 1 -85 24t-96 60q-47 38 -82 82l5 11q42 -20 85 -32t79 -18q35 -6 55 -6q17 -1 26 15q10 15 10 58v18q-1 9 -1 19l-39 588h188v0z" />
    <glyph glyph-name="K" unicode="K" horiz-adv-x="748" 
d="M735 -12l-14 1l-419 401l-43 -40l-12 -350h-129l-28 799h185l-13 -357l261 367l186 -49l-276 -250l302 -522v0z" />
    <glyph glyph-name="L" unicode="L" horiz-adv-x="649" 
d="M619 95l-1 -14l-499 -95l-29 812h190l-29 -648l368 -55v0z" />
    <glyph glyph-name="M" unicode="M" horiz-adv-x="973" 
d="M884 798l-15 -798h-120l-30 599l-228 -522h-8l-229 522l-93 -614h-16l-56 813h189l248 -413l191 413h167v0z" />
    <glyph glyph-name="N" unicode="N" horiz-adv-x="826" 
d="M734 809l-38 -823h-9l-426 612l-91 -612h-16l-66 813h168l350 -424l109 434h19v0z" />
    <glyph glyph-name="O" unicode="O" horiz-adv-x="835" 
d="M623 319v0q-1 103 -25 181q-23 77 -60 128q-38 52 -80 77q-43 26 -81 26q-47 -1 -85 -31q-38 -31 -59 -87q-22 -55 -23 -130q1 -109 25 -188t62 -129q38 -51 80 -75q43 -24 82 -24q48 1 85 32t57 88q21 56 22 132v0zM784 401v0q-1 -98 -36 -176q-34 -77 -89 -132
t-119 -84q-63 -30 -122 -30t-123 30q-64 29 -120 84q-55 55 -90 132q-35 78 -36 176q1 96 36 173t90 132q56 55 120 84t123 30q59 -1 122 -30q64 -30 119 -85t89 -132q35 -77 36 -172v0z" />
    <glyph glyph-name="P" unicode="P" horiz-adv-x="729" 
d="M541 625v0q1 43 -38 72q-39 30 -130 31q-21 0 -46 -2q-24 -2 -52 -6l-8 -374q83 17 137 50q54 34 84 76q30 41 42 82t11 71v0zM720 629v0q1 -45 -19 -93t-69 -92q-50 -44 -139 -76q-89 -31 -226 -43l-8 -325h-131l-38 799h187l-1 -31q55 16 104 23q48 8 90 8
q82 -1 137 -25q56 -23 85 -62q28 -38 28 -83v0z" />
    <glyph glyph-name="Q" unicode="Q" horiz-adv-x="833" 
d="M623 319v0q-1 103 -25 181q-23 77 -60 128q-38 52 -80 77q-43 26 -81 26q-47 -1 -85 -31q-38 -31 -59 -87q-22 -55 -23 -130q1 -109 25 -188t62 -129q38 -51 80 -75q43 -24 82 -24q10 0 20 2q10 1 19 4l-133 125l155 97l70 -136q15 32 24 72t9 88v0zM784 401v0
q-1 -72 -20 -133q-20 -62 -53 -112q-33 -49 -76 -86l111 -213l-10 -4q-1 1 -18 17t-44 41q-28 25 -58 53t-57 53q-36 -18 -71 -28q-36 -10 -70 -10q-59 0 -123 30q-64 29 -120 84q-55 55 -90 132q-35 78 -36 176q1 96 36 173t90 132q56 55 120 84t123 30q59 -1 122 -30
q64 -30 119 -85t89 -132q35 -77 36 -172v0z" />
    <glyph glyph-name="R" unicode="R" horiz-adv-x="756" 
d="M723 -15l-13 1l-422 376l1 14q61 13 109 44q49 31 82 71t47 81q4 13 6 25q3 13 3 25q0 41 -28 66q-27 25 -85 25q-36 0 -73 -4q-36 -5 -75 -15l-16 -694h-131l-38 798h187l-1 -56q48 27 97 42q50 14 96 14q85 -1 137 -28q52 -28 75 -70q23 -43 23 -88q0 -15 -3 -30
q-2 -14 -6 -27q-16 -45 -51 -80t-80 -59t-90 -34l249 -397v0z" />
    <glyph glyph-name="S" unicode="S" horiz-adv-x="733" 
d="M668 211v0q-8 -88 -50 -139t-107 -72t-140 -21q-55 0 -116 28q-61 27 -119 83q-58 55 -103 139l7 7q56 -43 119 -73q64 -31 120 -47q56 -17 91 -17q49 0 81 23q33 23 39 74v4q-1 22 -31 47q-30 26 -77 54q-47 29 -99 60q-53 32 -100 66t-77 71q-30 38 -31 77v9q1 4 1 8
q14 69 55 120q42 51 102 79q59 28 125 29q65 0 140 -20t154 -57l-57 -167q-79 78 -137 115q-59 37 -108 37q-56 0 -85 -28t-33 -90v-3q1 -28 32 -55q31 -28 81 -56q49 -28 105 -59q55 -30 105 -64q49 -34 80 -72q32 -38 33 -82v-4v-4v0z" />
    <glyph glyph-name="T" unicode="T" horiz-adv-x="648" 
d="M651 736l-233 -31l-28 -705h-133l-28 681l-213 -28v156l635 -59v-14v0z" />
    <glyph glyph-name="U" unicode="U" horiz-adv-x="828" 
d="M736 276v0q0 -4 1 -9v-9q-1 -82 -43 -145q-43 -62 -115 -98q-73 -35 -164 -36q-97 1 -164 42q-66 40 -102 107q-35 67 -38 148l-21 523h190l-31 -514q0 -7 -1 -12v-11q1 -96 46 -151q44 -55 121 -56q40 1 75 31q34 30 59 83q25 54 39 124l100 516h13l35 -533v0z" />
    <glyph glyph-name="V" unicode="V" horiz-adv-x="753" 
d="M724 809l-257 -823l-179 14l-271 778l191 41l156 -648l346 638h14v0z" />
    <glyph glyph-name="W" unicode="W" horiz-adv-x="996" 
d="M977 807l-212 -821h-8l-275 513l-220 -513h-11l-236 792l185 41l97 -530l143 403l140 22l135 -398l247 491h15v0z" />
    <glyph glyph-name="X" unicode="X" horiz-adv-x="699" 
d="M699 0l-128 -10l-244 341l-261 -345h-18l230 415l-261 367l170 53l171 -275l139 252h183l-263 -348l282 -450v0z" />
    <glyph glyph-name="Y" unicode="Y" horiz-adv-x="664" 
d="M666 809l-227 -538l-25 -271h-132l-25 269l-271 508l187 42l155 -431l322 419l16 2v0z" />
    <glyph glyph-name="Z" unicode="Z" horiz-adv-x="715" 
d="M687 64l-589 -76l-39 128l404 639l-374 -123v166h594l-483 -664l487 -56v-14v0z" />
    <glyph glyph-name="bracketleft" unicode="[" horiz-adv-x="410" 
d="M401 -92l-301 -61v1003l301 -60v-13l-174 -41v-775l174 -39v-14v0z" />
    <glyph glyph-name="backslash" unicode="\" horiz-adv-x="410" 
d="M409 -61l-13 1l-396 872l142 33l267 -906v0z" />
    <glyph glyph-name="bracketright" unicode="]" horiz-adv-x="410" 
d="M310 -154l-301 63v13l174 39v775l-174 41v13l301 60v-1004v0z" />
    <glyph glyph-name="asciicircum" unicode="^" 
d="M613 333l-12 -9l-247 332l-248 -332l-12 9l178 465h163l178 -465v0z" />
    <glyph glyph-name="underscore" unicode="_" horiz-adv-x="512" 
d="M512 -164l-512 1v70h512v-71v0z" />
    <glyph glyph-name="grave" unicode="`" horiz-adv-x="410" 
d="M359 660l-13 -22l-288 89l88 130l213 -197v0z" />
    <glyph glyph-name="a" unicode="a" horiz-adv-x="628" 
d="M402 129l-6 179q-25 -20 -61 -42q-37 -21 -71 -47q-34 -25 -52 -55q-7 -14 -11 -27q-3 -12 -3 -24q0 -21 12 -33q13 -13 37 -14q5 0 11 1q5 0 11 1q20 5 47 15q27 9 51 21q23 12 35 25v0zM635 82v0q-46 -45 -83 -70q-36 -25 -64 -26q-22 0 -40 18q-19 18 -34 58
q-32 -28 -78 -46q-46 -19 -99 -26q-17 -2 -33 -3q-15 -1 -29 -1q-73 0 -109 26q-35 26 -35 78q0 12 2 25q2 14 6 29q12 40 50 71q38 32 88 57q50 24 98 45t80 41q31 19 33 39q0 44 -12 61t-43 16q-24 0 -71 -4q-46 -5 -102 -13t-108 -21l-5 10q29 27 72 51q43 25 93 44
q49 19 98 31q49 11 90 11q62 1 94 -12t43 -51t10 -112v-231v-28q0 -36 7 -52q7 -17 31 -16q9 0 20 2q12 2 26 5l4 -6v0z" />
    <glyph glyph-name="b" unicode="b" horiz-adv-x="685" 
d="M492 346v0q0 69 -24 100q-23 31 -68 31q-43 0 -82 -7q-39 -8 -83 -26l-16 -410q104 35 164 83q60 49 85 107t24 122v0zM645 354v0q-1 -124 -68 -206q-66 -82 -187 -122q-122 -40 -285 -40l-35 812h179l-12 -312q27 25 63 47q36 23 75 36q40 14 78 14q97 0 145 -60
q47 -59 47 -169v0z" />
    <glyph glyph-name="c" unicode="c" horiz-adv-x="596" 
d="M588 -2l-4 -11q-157 -1 -263 14q-105 15 -167 47q-62 33 -89 86q-26 53 -26 130q1 100 32 171q31 72 86 110q54 38 124 39q93 -1 168 -20q75 -20 126 -49l-66 -136q-61 62 -112 96q-50 34 -100 35q-30 0 -54 -24t-38 -80t-14 -150q-1 -69 39 -115q41 -46 128 -80
q88 -33 230 -63v0z" />
    <glyph glyph-name="d" unicode="d" horiz-adv-x="686" 
d="M466 139l-17 385q-132 -56 -192 -132q-59 -75 -58 -167q0 -69 23 -101q24 -32 69 -32t87 12q42 11 88 35v0zM690 82v0q-44 -42 -84 -68q-39 -26 -70 -27q-25 -1 -42 21q-16 22 -23 74q-39 -42 -98 -68t-135 -27q-98 1 -145 60q-48 60 -48 170q0 142 101 230t301 125
l-10 226h179l-14 -621v-28q-1 -36 6 -52q8 -17 31 -16q9 0 20 2q12 2 27 5l4 -6v0z" />
    <glyph glyph-name="e" unicode="e" horiz-adv-x="638" 
d="M448 354v0q-5 41 -24 76q-18 35 -47 57q-28 22 -63 23q-41 1 -71 -19t-46 -76q-16 -55 -16 -159v-10q0 -5 1 -10l266 118v0zM619 270l-435 -49q8 -56 51 -96q43 -39 129 -69q87 -30 224 -57l-4 -12q-157 -1 -262 14q-106 15 -168 47q-62 33 -89 86q-26 53 -26 130
q1 100 38 171q37 72 95 110q59 38 128 39q53 0 108 -17q54 -16 100 -53q47 -37 77 -97q29 -60 34 -147v0z" />
    <glyph glyph-name="f" unicode="f" horiz-adv-x="393" 
d="M420 734l-1 -11l-150 -36l-4 -145l136 -22v-9l-137 -24l-14 -487h-126l-15 460l-93 -15v138l90 -15l-8 252l322 -86v0z" />
    <glyph glyph-name="g" unicode="g" horiz-adv-x="675" 
d="M450 176l-14 332q-122 -40 -180 -108q-58 -67 -57 -157q0 -58 23 -83q23 -24 69 -23q41 0 79 10q39 9 80 29v0zM605 583l-19 -555q-3 -91 -20 -144t-50 -76q-33 -22 -84 -21q-13 0 -27 1l-30 4q-44 6 -95 23t-106 49q-56 33 -115 86l5 8q28 -11 67 -20q40 -10 81 -17
q42 -7 78 -11q35 -5 56 -5h11h10q53 -2 72 17q20 18 19 69q0 6 -1 12v13l-4 93q-41 -35 -97 -57q-57 -21 -122 -22q-88 0 -138 46t-51 147q1 80 46 146t123 114t179 74q100 26 212 26v0z" />
    <glyph glyph-name="h" unicode="h" horiz-adv-x="689" 
d="M613 393l-17 -393h-127l-16 351q-2 45 -9 69t-21 34q-14 9 -35 9q-17 0 -44 -6q-26 -7 -57 -19q-30 -12 -59 -31l-14 -407h-126l-27 798h180l-11 -343q31 38 74 67q42 29 88 45t90 17q50 0 79 -19q29 -18 41 -54t12 -89q0 -7 -1 -14v-15v0z" />
    <glyph glyph-name="i" unicode="i" horiz-adv-x="325" 
d="M253 570l-27 -570h-126l-27 570h180v0zM304 770l-167 -168l-81 211l248 -43v0z" />
    <glyph glyph-name="j" unicode="j" horiz-adv-x="331" 
d="M260 570l-27 -531q-1 -36 -28 -77q-27 -42 -80 -86q-54 -43 -137 -82l-6 10q41 46 69 92q27 45 42 83q14 38 14 63v3l-27 525h180v0zM305 770l-167 -168l-82 211l249 -43v0z" />
    <glyph glyph-name="k" unicode="k" horiz-adv-x="611" 
d="M611 -14h-10l-308 253l-58 -63l-7 -176h-125l-27 798h179l-16 -500l165 285l178 -31l-189 -204l218 -362v0z" />
    <glyph glyph-name="l" unicode="l" horiz-adv-x="329" 
d="M256 798l-28 -798h-127l-28 798h183v0z" />
    <glyph glyph-name="m" unicode="m" horiz-adv-x="956" 
d="M883 393l-17 -393h-122l-16 351q-3 61 -19 87q-17 25 -48 25q-24 -1 -53 -15q-28 -14 -56 -37q0 -5 -1 -9v-9l-16 -393h-117l-16 351q-4 61 -23 87q-18 25 -50 25q-23 -1 -50 -14t-55 -35l-15 -414h-121l-27 570h170l-4 -96q44 53 98 81q55 29 109 29q55 0 83 -28
q28 -29 33 -92q46 58 102 89q56 30 114 31q63 0 90 -38q28 -38 28 -122q0 -7 -1 -15v-16v0z" />
    <glyph glyph-name="n" unicode="n" horiz-adv-x="689" 
d="M613 393l-17 -393h-127l-16 351q-2 45 -9 69t-21 34q-14 9 -34 9q-17 0 -43 -6q-25 -5 -55 -17q-29 -12 -57 -29l-20 -411h-125l-27 570h179l-5 -108q32 36 73 63q42 28 86 43q45 15 87 16q50 0 79 -19q29 -18 41 -54t12 -89q0 -7 -1 -14v-15v0z" />
    <glyph glyph-name="o" unicode="o" horiz-adv-x="678" 
d="M483 244v0q-2 91 -29 150q-28 58 -67 85q-40 28 -77 28t-62 -16q-26 -17 -39 -57q-13 -39 -13 -109q1 -84 29 -143t68 -90t78 -31q36 0 61 17t38 57t13 109v0zM639 284v0q-1 -67 -28 -122q-28 -55 -72 -94q-45 -39 -97 -60t-102 -21q-49 0 -102 21q-52 21 -97 60t-73 94
t-29 122q1 69 29 124t73 94t97 60q53 22 102 22q50 0 102 -22q52 -21 97 -60q44 -39 72 -94q27 -55 28 -124v0z" />
    <glyph glyph-name="p" unicode="p" horiz-adv-x="685" 
d="M492 346v0q0 69 -24 100q-23 31 -68 31q-41 0 -78 -7q-37 -6 -78 -22l-16 -411q101 36 158 84q58 48 82 105t24 120v0zM645 354v0q0 -108 -51 -184t-145 -120t-223 -58l-8 -210h-113l-35 788h179l-3 -75q42 36 97 61q55 26 110 27q97 0 145 -60q47 -59 47 -169v0z" />
    <glyph glyph-name="q" unicode="q" horiz-adv-x="691" 
d="M466 134l-17 390q-132 -57 -192 -132q-59 -76 -58 -167q0 -70 23 -102q24 -32 69 -31q43 0 86 10q44 11 89 32v0zM626 583l-31 -801h-113l-12 288q-42 -38 -102 -61q-60 -22 -130 -23q-98 1 -145 61q-48 60 -48 170q1 114 69 196q69 82 198 126q130 44 314 44v0z" />
    <glyph glyph-name="r" unicode="r" horiz-adv-x="461" 
d="M457 433v0q-21 11 -46 17q-25 5 -51 5q-33 0 -63 -8q-30 -7 -51 -21l-13 -426h-126l-37 570h180l-3 -101q24 30 57 56q34 26 73 42t80 16v-150v0z" />
    <glyph glyph-name="s" unicode="s" horiz-adv-x="591" 
d="M554 164v0q4 -13 6 -26q3 -12 3 -22q0 -61 -61 -94q-60 -34 -179 -34q-62 0 -119 23q-56 24 -104 65q-47 41 -82 95l8 10q65 -49 135 -77q71 -28 140 -28q47 0 73 12q25 12 26 31q0 2 -1 5t-1 5q-12 28 -50 56q-39 27 -91 57q-53 31 -107 68t-98 85q-12 14 -18 29
q-6 14 -6 29q1 33 24 63q24 29 66 48q43 19 100 20q71 -1 133 -12q63 -11 112 -29t78 -39l-70 -126q-27 27 -68 53q-40 27 -82 47q-42 19 -75 25q-8 1 -15 1q-7 1 -14 1q-32 -1 -52 -12t-20 -28q0 -8 5 -16q5 -9 15 -17q21 -16 63 -36q41 -21 91 -46t99 -54q49 -30 85 -63
q37 -33 51 -69v0z" />
    <glyph glyph-name="t" unicode="t" horiz-adv-x="431" 
d="M404 107v0q-53 -61 -97 -91q-45 -29 -80 -29q-46 0 -72 47t-30 138l-9 281h-110v11l258 284h14l-9 -196l115 39v-138h-121l-12 -259v-14q-1 -6 -1 -13q0 -43 10 -63q11 -20 36 -20q18 0 43 8q25 9 60 26l5 -11v0z" />
    <glyph glyph-name="u" unicode="u" horiz-adv-x="689" 
d="M675 82v0q-45 -42 -83 -68q-39 -26 -68 -27q-27 -1 -43 25t-22 86q-21 -32 -56 -57q-34 -24 -74 -39q-39 -14 -76 -14q-62 0 -97 22t-51 66t-20 109l-26 385h175l-16 -377v-12q-1 -45 18 -66q20 -20 69 -20q29 0 70 15q41 16 80 52l-28 408h174l-14 -393v-28
q-1 -36 7 -52q7 -17 31 -16q8 0 20 2q11 2 26 5l4 -6v0z" />
    <glyph glyph-name="v" unicode="v" horiz-adv-x="588" 
d="M574 580l-185 -594l-140 14l-223 540l175 42l105 -411l253 409h15v0z" />
    <glyph glyph-name="w" unicode="w" horiz-adv-x="862" 
d="M836 580l-211 -594h-12l-205 391l-168 -391h-12l-223 553l165 43l93 -346l118 283l136 16l93 -280l211 325h15v0z" />
    <glyph glyph-name="x" unicode="x" horiz-adv-x="559" 
d="M573 0h-140l-179 223l-199 -237h-17l169 296l-207 258l162 44l120 -171l89 157h174l-203 -243l231 -327v0z" />
    <glyph glyph-name="y" unicode="y" horiz-adv-x="612" 
d="M602 579l-295 -814l-172 74l146 236l-253 464l178 44l131 -415l251 411h14v0z" />
    <glyph glyph-name="z" unicode="z" horiz-adv-x="572" 
d="M574 57l-515 -70l-21 112l315 421l-293 -96v146h500l-381 -454l395 -48v-11v0z" />
    <glyph glyph-name="braceleft" unicode="{" horiz-adv-x="410" 
d="M388 -154l-2 -8q-80 5 -126 16q-45 11 -65 29t-25 45q-5 26 -4 63v71v79v66q0 47 -23 81q-24 33 -73 59q49 24 73 59q23 35 23 83v66v79v72q-1 36 4 62q5 27 25 45t65 29q46 12 126 17l2 -9q-49 -16 -75 -40t-36 -54q-9 -29 -9 -59q0 -8 1 -15l2 -16q4 -42 8 -93
q3 -51 4 -97v-11v-10q-2 -46 -19 -73q-18 -28 -52 -34q34 -6 52 -34q17 -27 19 -74v-8v-9q-1 -46 -5 -98q-4 -51 -7 -96q-1 -6 -1 -12q-1 -7 -1 -14q0 -30 9 -59q9 -30 34 -56q26 -25 76 -42v0z" />
    <glyph glyph-name="bar" unicode="|" horiz-adv-x="353" 
d="M239 -24l-125 1v333h125v-334v0zM239 488h-125v334h125v-334v0z" />
    <glyph glyph-name="braceright" unicode="}" horiz-adv-x="410" 
d="M340 347v0q-49 -26 -73 -59q-23 -34 -23 -81v-66v-79v-71q1 -37 -4 -63q-5 -27 -25 -45t-65 -29q-46 -11 -126 -16l-2 9q50 16 76 42q25 25 34 55q9 29 9 59q0 7 -1 14q0 6 -1 12q-3 45 -7 96q-4 52 -5 98v9v8q2 47 19 74q18 28 52 34q-34 6 -52 34q-17 27 -19 73v10v11
q1 46 4 97q4 51 8 93l2 16q1 7 1 15q0 30 -9 59q-10 30 -36 54t-75 40l2 9q80 -5 126 -17q45 -11 65 -29t25 -45q5 -26 4 -62v-72v-79v-66q0 -48 23 -83q24 -35 73 -59v0z" />
    <glyph glyph-name="asciitilde" unicode="~" horiz-adv-x="512" 
d="M443 811v0q-22 -73 -39 -111q-18 -38 -36 -51q-17 -14 -39 -13q-25 1 -52 15q-26 14 -49 28q-24 14 -42 15q-35 0 -61 -16q-26 -15 -47 -39l-6 8q22 65 41 103q20 38 38 55q18 16 36 16q26 -1 50 -15t47 -28q23 -13 45 -14q36 0 62 15t45 39l7 -7v0z" />
    <glyph glyph-name="exclamdown" unicode="&#xa1;" horiz-adv-x="430" 
d="M320 -212l-199 38l63 596l56 -3l80 -631v0zM323 477l-225 -23l113 183l112 -160v0z" />
    <glyph glyph-name="cent" unicode="&#xa2;" horiz-adv-x="614" 
d="M329 498v0q-9 3 -18 4q-10 1 -19 1q-30 1 -54 -23q-24 -25 -38 -81q-14 -55 -14 -150q0 -38 12 -69t38 -57l93 375v0zM583 -9l-4 -11q-107 0 -188 6q-82 7 -143 20l-49 -110l-18 6l28 114q-96 30 -136 89t-39 153q1 99 32 171q31 71 86 110q54 38 124 38q18 0 36 -1
t36 -3l26 109l148 -53l-37 -84q24 -7 46 -17q21 -9 39 -20l-66 -136q-18 19 -35 34q-16 16 -32 30l-153 -348q48 -28 122 -51q74 -24 177 -46v0z" />
    <glyph glyph-name="sterling" unicode="&#xa3;" horiz-adv-x="788" 
d="M728 149v0q-15 -28 -41 -56t-57 -51t-59 -37t-46 -14q-31 0 -55 14t-45 32q-20 18 -40 31q-20 14 -42 15q-20 0 -53 -12q-33 -13 -75 -36t-86 -56l-71 149q46 19 91 41q46 23 84 48q38 24 61 49q23 26 24 50l-259 -36v163l193 -20q-31 28 -60 57q-30 30 -49 62
q-20 33 -21 70v8q1 4 1 7q4 30 30 60q26 31 66 57t87 42q46 16 91 17q56 0 108 -15q52 -14 93 -42q41 -27 67 -67l-137 -88q-19 62 -56 97q-36 34 -77 35q-42 -1 -71 -27t-35 -74v-4v-4q1 -33 22 -65q21 -33 47 -67q27 -35 46 -74l242 -30v-8l-224 -41v-14l-2 -14
q-5 -33 -24 -64t-46 -58q-26 -26 -55 -43q16 6 36 11t37 5q28 0 56 -10q27 -9 55 -18q29 -9 61 -10q20 0 50 4t64 13q35 9 67 24l7 -6v0z" />
    <glyph glyph-name="currency" unicode="&#xa4;" horiz-adv-x="614" 
d="M399 339v0q-1 42 -30 70q-28 28 -70 29q-42 -1 -70 -29t-29 -70q1 -42 29 -70q28 -29 70 -30q42 1 70 30q29 28 30 70v0zM582 71l-17 -17l-158 79q-25 -13 -52 -20t-56 -7t-56 7q-28 7 -51 20l-149 -78l-20 24l71 151q-13 24 -20 52q-7 27 -7 57q0 29 7 56q6 27 19 51
l-67 144l19 19l146 -64q24 13 52 19q27 7 56 7q30 0 58 -7q27 -7 52 -20l152 65l18 -20l-74 -144q13 -24 20 -51t7 -55q0 -30 -8 -57q-7 -28 -20 -52l78 -159v0z" />
    <glyph glyph-name="yen" unicode="&#xa5;" 
d="M686 809l-220 -421l204 -19v-9l-214 -29l-7 -108l201 38v-145l-207 9l-9 -125h-132l-8 130l-234 9v9l230 44l-7 116l-204 -28v145l183 -18l-257 370l189 42l163 -349l314 337l15 2v0z" />
    <glyph glyph-name="brokenbar" unicode="&#xa6;" horiz-adv-x="353" 
d="M239 -24l-125 1v845h125v-846v0z" />
    <glyph glyph-name="section" unicode="&#xa7;" horiz-adv-x="1024" 
d="M682 380v0v2v2q0 26 -28 51t-83 42t-136 17q-31 0 -51 -13q-21 -12 -31 -32q-11 -20 -12 -43v-1v-1q1 -23 35 -49t91 -44q58 -18 130 -19q39 0 60 23t25 65v0zM804 391v0q-6 -76 -41 -116t-90 -54q32 -22 53 -51q21 -30 22 -64v-6q-5 -69 -38 -108q-33 -38 -86 -53
t-116 -15q-44 0 -93 22q-49 23 -95 67t-82 111l6 5q44 -35 92 -60q49 -25 92 -39q42 -14 70 -14q39 0 64 16q26 16 31 57v3q-1 20 -27 38q-27 19 -68 37q-42 18 -89 39t-88 45q-42 25 -68 56q-27 31 -28 70v7q1 4 1 8q8 45 28 77q21 32 48 52q28 20 55 30q-33 25 -53 57
q-20 31 -20 59v5q1 2 1 5q9 57 42 95q34 37 82 55t101 18t114 -16q60 -16 122 -46l-66 -151q-41 56 -88 92t-88 37q-42 -1 -62 -22q-20 -22 -22 -56v-1v-1q1 -20 28 -37q28 -18 71 -35q44 -18 93 -38t93 -45q43 -24 71 -56q27 -31 28 -72v-3v-4v0z" />
    <glyph glyph-name="dieresis" unicode="&#xa8;" horiz-adv-x="1024" 
d="M490 825l-110 -110l-54 139l164 -29v0zM711 825l-111 -110l-54 139l165 -29v0z" />
    <glyph glyph-name="copyright" unicode="&#xa9;" horiz-adv-x="796" 
d="M579 515l-75 -106q-11 35 -29 61q-18 27 -38 42q-21 15 -39 15q-37 1 -61 -43q-25 -45 -26 -141q-1 -54 24 -90q26 -36 81 -59q56 -23 146 -39l-3 -12q-122 -1 -204 16q-83 16 -125 61q-41 46 -41 131q0 55 20 100q19 44 50 76q30 32 64 49q33 17 61 17q34 0 70 -9
t69 -27q33 -17 56 -42v0zM687 366v0q-1 80 -39 145q-39 65 -104 103q-65 39 -145 40q-81 -1 -146 -40q-65 -38 -104 -103q-38 -65 -39 -145q1 -81 39 -146q39 -65 104 -104q65 -38 146 -39q80 1 145 39q65 39 104 104q38 65 39 146v0zM764 366v0q-1 -102 -50 -185
q-49 -82 -132 -131q-82 -49 -184 -50q-102 1 -185 50q-82 49 -131 131q-49 83 -50 185q1 102 50 184t131 131q83 49 185 50q102 -1 184 -50q83 -49 132 -131t50 -184v0z" />
    <glyph glyph-name="ordfeminine" unicode="&#xaa;" horiz-adv-x="343" 
d="M211 576l-4 82q-13 -5 -31 -14q-18 -10 -33 -21q-14 -12 -21 -24q-4 -9 -7 -18q-2 -8 -2 -15q0 -13 8 -21q7 -8 21 -8h6q3 1 7 2q17 4 32 15t24 22v0zM339 546v0q-16 -28 -36 -44q-21 -16 -39 -17q-16 0 -28 12t-19 38q-16 -16 -38 -30q-23 -14 -43 -18q-8 0 -15 -1
t-14 -1q-43 1 -65 20q-23 20 -23 54q0 14 3 28q7 24 35 44q28 19 61 35q34 16 59 28t26 22q1 18 -6 24q-7 7 -25 6q-23 0 -60 -6q-38 -6 -82 -18l-3 7q21 23 52 42q31 20 65 32q35 12 66 13q41 0 63 -25t22 -76v-107q0 -33 5 -48t17 -15q4 0 9 1q5 2 10 5l3 -5v0z" />
    <glyph glyph-name="guillemotleft" unicode="&#xab;" horiz-adv-x="655" 
d="M359 29l-10 -11l-311 205v121l309 216l10 -11l-197 -265l199 -255v0zM625 29l-9 -11l-312 205v121l310 216l9 -11l-197 -265l199 -255v0z" />
    <glyph glyph-name="logicalnot" unicode="&#xac;" horiz-adv-x="563" 
d="M527 406l-72 -326h-16l-72 247l-336 -58v145l496 -8v0z" />
    <glyph glyph-name="uni00AD" unicode="&#xad;" horiz-adv-x="512" 
d="M461 233h-420v70h420v-70v0z" />
    <glyph glyph-name="registered" unicode="&#xae;" horiz-adv-x="796" 
d="M687 365v0q-1 80 -39 146q-39 65 -104 103q-65 39 -145 40q-81 -1 -146 -40q-65 -38 -104 -103q-38 -66 -39 -146q1 -80 39 -145q39 -65 104 -104q65 -38 146 -39q48 0 91 14q43 15 79 41l-208 182l1 12q34 10 56 25t35 40q13 24 21 63q1 8 2 14q1 7 1 13q0 21 -10 31
q-10 9 -28 9h-6q-4 -1 -7 -1q-17 -2 -35 -8t-36 -15l-11 -370h-86l-32 460h132l-2 -50q22 16 49 29q26 13 58 21q9 3 17 3q9 1 17 1q25 0 46 -9q21 -10 35 -32q13 -22 13 -58q0 -13 -2 -28t-7 -32q-12 -48 -35 -76q-23 -27 -67 -38q0 -1 10 -18l25 -45q14 -26 29 -52l25 -45
t10 -19q51 42 79 101q29 59 29 125v0zM764 365v0q-1 -102 -50 -184t-132 -131q-82 -49 -184 -50q-103 1 -185 50t-131 131t-50 184q1 102 50 185q49 82 131 131t185 50q102 -1 184 -50q83 -49 132 -131q49 -83 50 -185v0z" />
    <glyph glyph-name="macron" unicode="&#xaf;" horiz-adv-x="512" 
d="M443 727l-349 -60v127l349 -58v-9v0z" />
    <glyph glyph-name="degree" unicode="&#xb0;" horiz-adv-x="1024" 
d="M286 834v0q-47 -7 -82 -24q-36 -16 -56 -40q-20 -25 -21 -56q1 -25 14 -41q14 -16 38 -17q19 1 33 17t14 39q0 16 -10 32q-10 15 -33 27l83 45q32 -27 46 -56q14 -30 14 -58q-1 -35 -18 -64q-18 -28 -48 -45q-31 -17 -68 -18q-66 1 -103 36t-37 92q0 40 22 72
q23 32 69 51q47 18 117 19q6 0 12 -1h12l2 -10v0z" />
    <glyph glyph-name="plusminus" unicode="&#xb1;" horiz-adv-x="1024" 
d="M882 69l-717 -87v176l717 -81v-8v0zM880 478l-294 -72l-67 -241h-14l-76 241l-277 72v10l277 67l76 237h14l67 -237l294 -67v-10v0z" />
    <glyph glyph-name="uni00B2" unicode="&#xb2;" horiz-adv-x="389" 
d="M366 369h-343q1 0 22 25q22 24 54 62t64 81q32 42 54 79t23 59q-1 19 -13 29q-13 11 -28 11q-44 0 -84 -13q-40 -12 -78 -37l-9 7q41 83 81 121t87 37q47 0 85 -22t61 -58q22 -37 23 -81q-1 -30 -27 -66t-67 -74q-40 -37 -84 -71q-44 -33 -81 -57l260 86v-118v0z" />
    <glyph glyph-name="uni00B3" unicode="&#xb3;" horiz-adv-x="410" 
d="M392 502v0q0 -45 -37 -76q-38 -32 -122 -49q-84 -18 -221 -21l-3 11q94 18 148 43t76 50q23 25 22 41q1 16 -9 32q-11 17 -42 28t-92 11l-1 12q49 23 81 50q31 27 43 54q2 5 3 9q1 5 1 9q0 17 -14 26q-13 10 -37 10h-10q-4 -1 -10 -2q-40 -6 -73 -21q-34 -14 -67 -37
l-7 7q15 30 39 60q23 30 53 51q31 22 65 27q10 2 20 2q11 1 20 1q49 0 83 -16t52 -42q17 -26 17 -56q0 -10 -2 -21t-7 -21q-11 -26 -37 -44t-61 -25q56 -10 84 -27t37 -36q9 -20 8 -40v0z" />
    <glyph glyph-name="acute" unicode="&#xb4;" horiz-adv-x="1024" 
d="M663 755l-271 -91l-6 10l174 176l103 -95v0z" />
    <glyph glyph-name="mu" unicode="&#xb5;" 
d="M620 570l-40 -571h-114l-3 58q-27 -32 -62 -49q-34 -18 -68 -18h-1h-1q-22 1 -47 10q-26 10 -46 28l-4 -211h-127l-38 753h180l-7 -364q14 -28 40 -49q25 -21 53 -22q37 0 69 17t53 47l-16 371h179v0z" />
    <glyph glyph-name="paragraph" unicode="&#xb6;" horiz-adv-x="1024" 
d="M743 -77l-113 1v773h-95v-773h-116v429q-31 3 -68 16q-37 12 -71 39q-35 26 -57 71q-23 45 -23 112q1 73 34 123q33 49 88 74q55 26 121 26h300v-891v0z" />
    <glyph glyph-name="periodcentered" unicode="&#xb7;" horiz-adv-x="440" 
d="M387 453l-222 -222l-109 280l331 -58v0z" />
    <glyph glyph-name="cedilla" unicode="&#xb8;" horiz-adv-x="512" 
d="M383 -120v0q-8 -60 -33 -85q-26 -24 -78 -24q-8 0 -16 1t-17 1q-38 4 -75 19t-61 39l4 8q21 -5 45 -9q24 -3 44 -3h16q7 1 13 3q19 5 29 18q11 12 15 33q0 2 1 4v4q0 10 -6 15q-5 6 -14 6q-7 0 -16 -4q-9 -3 -19 -10l-77 14l13 126l101 -26l-32 -92q17 14 39 26t39 16
q7 1 13 2q5 1 11 1q27 0 44 -16q18 -16 18 -49v-8t-1 -10v0z" />
    <glyph glyph-name="ordmasculine" unicode="&#xba;" horiz-adv-x="343" 
d="M231 628v0q-1 73 -22 106q-22 33 -56 33q-18 -1 -30 -27q-11 -26 -11 -74q0 -45 12 -73q11 -29 29 -42q18 -14 39 -14q18 0 28 23q11 23 11 68v0zM329 643v0q-1 -42 -24 -76q-24 -35 -60 -55q-35 -21 -73 -22q-40 1 -76 21q-36 21 -59 55q-23 35 -24 77q1 50 25 88
q24 39 61 61q36 21 73 22q39 -1 75 -23q35 -22 58 -61q23 -38 24 -87v0z" />
    <glyph glyph-name="guillemotright" unicode="&#xbb;" horiz-adv-x="655" 
d="M360 223l-312 -205l-9 11l199 255l-197 265l9 11l310 -216v-121v0zM626 223l-311 -205l-10 11l199 255l-197 265l10 11l309 -216v-121v0z" />
    <glyph glyph-name="onequarter" unicode="&#xbc;" horiz-adv-x="850" 
d="M792 62h-78l-3 -62h-77l-4 62h-240l166 412l114 -25l-182 -327l139 27l-12 190h115l-11 -176l73 13v-114v0zM662 770l-512 -793h-15l411 845l116 -52v0zM268 823l-29 -455h-86l-18 295l-115 37v11l248 112v0z" />
    <glyph glyph-name="onehalf" unicode="&#xbd;" horiz-adv-x="850" 
d="M790 0h-343q1 0 22 25q22 24 54 62t64 81q32 42 54 79t23 59q-1 19 -13 29q-13 11 -28 11q-44 0 -84 -13q-40 -12 -78 -37l-9 7q41 83 81 121q41 38 87 37q47 0 85 -22t61 -58q22 -37 23 -81q-1 -30 -27 -66t-67 -74q-40 -37 -84 -71q-44 -33 -81 -57l260 86v-118v0z
M651 770l-511 -793h-16l412 845l115 -52v0zM268 823l-29 -455h-86l-18 295l-115 37v10l248 113v0z" />
    <glyph glyph-name="threequarters" unicode="&#xbe;" horiz-adv-x="831" 
d="M792 62h-78l-3 -62h-77l-4 62h-240l166 412l114 -25l-182 -327l139 27l-12 190h115l-11 -176l73 13v-114v0zM709 770l-512 -793h-15l411 845l116 -52v0zM392 502v0q0 -45 -37 -76q-38 -32 -122 -49q-84 -18 -221 -21l-4 11q94 18 149 43q54 25 76 50q23 25 22 41
q1 16 -9 32q-11 17 -42 28t-92 11l-1 12q49 23 81 50q31 27 43 54q2 5 3 9q1 5 1 9q0 17 -14 26q-13 10 -37 10h-10q-4 -1 -10 -2q-40 -6 -73 -21q-34 -14 -67 -37l-7 7q15 30 39 60q23 30 53 51q30 22 64 27q11 2 21 2q10 1 20 1q49 0 83 -16t51 -42q18 -26 18 -56
q0 -10 -2 -21q-3 -11 -7 -21q-11 -26 -37 -44t-62 -25q57 -10 85 -27t37 -36q8 -20 8 -40v0z" />
    <glyph glyph-name="questiondown" unicode="&#xbf;" 
d="M638 -104v0q-79 -54 -166 -79t-184 -24q-40 0 -80 21q-41 20 -75 55t-55 79t-21 91q0 49 69 102q69 54 206 104l-9 152h10l118 -178q-86 -34 -134 -63q-47 -28 -66 -54t-18 -49q0 -56 15 -99q14 -44 37 -70q22 -25 46 -26q46 1 97 48q51 46 104 126l106 -136v0zM472 444
l-223 39l123 151l100 -190v0z" />
    <glyph glyph-name="Agrave" unicode="&#xc0;" horiz-adv-x="770" 
d="M503 888l-6 -10l-270 91l102 95l174 -176v0zM514 271l-154 332l-159 -284l313 -48v0zM768 2l-121 -14l-120 259l-406 -71l-106 -188h-16l280 809l162 25l327 -820v0z" />
    <glyph glyph-name="Aacute" unicode="&#xc1;" horiz-adv-x="770" 
d="M514 271l-154 332l-159 -284l313 -48v0zM768 2l-121 -14l-120 259l-406 -71l-106 -188h-16l280 809l162 25l327 -820v0zM517 969l-270 -91l-6 10l174 176l102 -95v0z" />
    <glyph glyph-name="Acircumflex" unicode="&#xc2;" horiz-adv-x="770" 
d="M514 271l-154 332l-159 -284l313 -48v0zM768 2l-121 -14l-120 259l-406 -71l-106 -188h-16l280 809l162 25l327 -820v0zM568 863l-7 -9l-177 87l-177 -87l-6 9l138 192h91l138 -192v0z" />
    <glyph glyph-name="Atilde" unicode="&#xc3;" horiz-adv-x="770" 
d="M514 271l-154 332l-159 -284l313 -48v0zM768 2l-121 -14l-120 258l-406 -70l-106 -188h-16l280 809l162 25l327 -820v0zM569 1035v0q-22 -73 -39 -111q-18 -38 -36 -51q-17 -14 -39 -13q-25 1 -52 15q-26 14 -50 28q-23 14 -41 15q-35 0 -61 -16q-26 -15 -47 -39l-6 8
q22 65 41 103q20 38 38 55q18 16 36 16q26 -1 50 -15t47 -27q22 -14 45 -15q36 0 62 15t45 39l7 -7v0z" />
    <glyph glyph-name="Adieresis" unicode="&#xc4;" horiz-adv-x="770" 
d="M514 271l-154 332l-159 -284l313 -48v0zM768 2l-121 -14l-120 259l-406 -71l-106 -188h-16l280 809l162 25l327 -820v0zM350 997l-109 -110l-54 139l163 -29v0zM572 997l-111 -110l-54 139l165 -29v0z" />
    <glyph glyph-name="Aring" unicode="&#xc5;" horiz-adv-x="770" 
d="M514 271l-154 332l-159 -284l313 -48v0zM768 2l-120 -13l-121 258l-406 -71l-106 -187h-16l280 809l162 24l327 -820v0zM465 1082v0q-69 -12 -112 -43q-43 -30 -44 -77q0 -25 14 -41q13 -16 38 -17q19 1 32 17t14 39q0 16 -10 32q-9 15 -32 27l82 44q30 -27 44 -56
t14 -57q0 -34 -18 -63q-18 -28 -48 -45t-67 -18q-64 1 -101 37t-38 91q0 40 23 71t70 50q46 18 117 19h10h10l2 -10v0z" />
    <glyph glyph-name="AE" unicode="&#xc6;" horiz-adv-x="949" 
d="M458 286l-14 334l-178 -283l192 -51v0zM912 79l-442 -89l-10 252l-289 -56l-116 -186h-13l309 799h253l-2 -75l291 85v-166l-292 35l-5 -256l250 73v-162l-251 45l-5 -246l322 -43v-10v0z" />
    <glyph glyph-name="Ccedilla" unicode="&#xc7;" horiz-adv-x="755" 
d="M722 754l-57 -167q-65 65 -135 98q-70 34 -143 34q-35 -1 -66 -30q-30 -28 -53 -75q-22 -47 -35 -104q-12 -56 -13 -113q0 -77 22 -140q22 -62 76 -112q53 -50 145 -87q92 -38 231 -65l-2 -14q-76 0 -143 5q-66 5 -123 15l-28 -81q16 14 39 26q22 12 39 16q7 2 13 2
q5 1 11 1q27 0 44 -16q18 -16 18 -48v-9q0 -4 -1 -9q-8 -60 -33 -85q-26 -25 -78 -24h-16q-8 1 -17 2q-38 3 -75 18q-37 16 -61 39l4 8q21 -5 45 -9q24 -3 44 -3q9 0 16 1q7 0 13 2q19 5 29 18q11 12 15 33q0 2 1 5v3q0 10 -6 16q-5 5 -14 5q-7 0 -16 -3q-9 -4 -19 -11
l-77 14l11 109q-147 42 -213 120q-66 77 -65 182q1 123 33 217q31 93 84 156t118 94q66 32 134 32q80 0 159 -16q79 -17 145 -50v0z" />
    <glyph glyph-name="Egrave" unicode="&#xc8;" horiz-adv-x="706" 
d="M498 888l-6 -9l-271 91l103 94l174 -176v0zM664 79l-536 -89l-38 809h187l-3 -78l369 88v-166l-370 36l-6 -259l324 76v-163l-325 46l-6 -247l404 -43v-10v0z" />
    <glyph glyph-name="Eacute" unicode="&#xc9;" horiz-adv-x="706" 
d="M664 79l-536 -89l-38 809h187l-3 -78l369 88v-166l-370 36l-6 -259l324 76v-163l-325 46l-6 -247l404 -43v-10v0zM517 970l-270 -91l-6 9l174 176l102 -94v0z" />
    <glyph glyph-name="Ecircumflex" unicode="&#xca;" horiz-adv-x="706" 
d="M664 79l-536 -89l-38 809h187l-3 -78l369 88v-166l-370 36l-6 -259l324 76v-163l-325 46l-6 -247l404 -43v-10v0zM564 863l-6 -9l-177 87l-177 -87l-6 9l138 193h91l137 -193v0z" />
    <glyph glyph-name="Edieresis" unicode="&#xcb;" horiz-adv-x="706" 
d="M664 79l-536 -89l-38 809h187l-3 -78l369 88v-166l-370 36l-6 -259l324 76v-163l-325 46l-6 -247l404 -43v-10v0zM350 997l-109 -110l-54 139l163 -29v0zM571 997l-110 -110l-54 139l164 -29v0z" />
    <glyph glyph-name="Igrave" unicode="&#xcc;" horiz-adv-x="381" 
d="M287 798l-29 -798h-135l-29 798h193v0zM338 888l-6 -10l-270 91l102 95l174 -176v0z" />
    <glyph glyph-name="Iacute" unicode="&#xcd;" horiz-adv-x="381" 
d="M287 798l-29 -798h-135l-29 798h193v0zM319 969l-271 -91l-6 10l174 176l103 -95v0z" />
    <glyph glyph-name="Icircumflex" unicode="&#xce;" horiz-adv-x="381" 
d="M287 798l-29 -798h-135l-29 798h193v0zM375 863l-6 -9l-177 87l-177 -87l-7 9l139 193h91l137 -193v0z" />
    <glyph glyph-name="Idieresis" unicode="&#xcf;" horiz-adv-x="381" 
d="M287 798l-29 -798h-135l-29 798h193v0zM167 997l-109 -110l-55 139l164 -29v0zM389 997l-111 -110l-54 139l165 -29v0z" />
    <glyph glyph-name="Eth" unicode="&#xd0;" horiz-adv-x="824" 
d="M580 288v0q8 30 12 60q4 31 4 62q0 70 -18 132q-17 61 -48 102t-71 47q-11 1 -21 2t-21 1q-36 0 -72 -9t-71 -28l-5 -238l195 -20v-13l-196 -25l-7 -317q99 33 165 74q67 41 104 85q38 43 50 85v0zM744 295v0q-46 -151 -198 -230q-151 -78 -418 -79l-16 356l-76 -10v111
l71 -7q0 1 -1 27t-3 67t-4 87t-4 87t-3 67t-1 27h186l-2 -94q44 46 98 70t112 24q83 -1 146 -49q63 -49 99 -129q36 -81 36 -179q0 -36 -5 -73q-6 -37 -17 -73v0z" />
    <glyph glyph-name="Ntilde" unicode="&#xd1;" horiz-adv-x="826" 
d="M734 809l-38 -823h-9l-426 612l-91 -612h-16l-66 812h168l350 -424l109 435h19v0zM611 1035v0q-22 -73 -39 -111q-18 -38 -36 -51q-17 -14 -39 -13q-25 1 -52 15q-26 14 -50 28q-23 14 -41 15q-35 0 -61 -16q-26 -15 -47 -39l-6 8q22 65 41 103q20 38 38 55q18 16 36 16
q26 -1 50 -15t47 -27q22 -14 45 -15q36 0 62 15t45 39l7 -7v0z" />
    <glyph glyph-name="Ograve" unicode="&#xd2;" horiz-adv-x="830" 
d="M563 887l-6 -9l-270 91l102 94l174 -176v0zM623 319v0q-1 103 -25 181q-23 77 -60 128q-38 52 -80 77q-43 26 -81 26q-47 -1 -85 -31q-38 -31 -59 -87q-22 -55 -23 -130q1 -109 25 -188t62 -129q38 -51 80 -75q43 -24 82 -24q48 1 85 32t57 88q21 56 22 132v0zM784 401v0
q-1 -98 -36 -176q-34 -77 -89 -132t-119 -84q-63 -30 -122 -30t-123 30q-64 29 -120 84q-55 55 -90 132q-35 78 -36 176q1 96 36 173t90 132q56 55 120 84t123 30q59 -1 122 -30q64 -30 119 -85t89 -132q35 -77 36 -172v0z" />
    <glyph glyph-name="Oacute" unicode="&#xd3;" horiz-adv-x="830" 
d="M550 969l-270 -91l-6 9l174 176l102 -94v0zM623 319v0q-1 103 -25 181q-23 77 -60 128q-38 52 -80 77q-43 26 -81 26q-47 -1 -85 -31q-38 -31 -59 -87q-22 -55 -23 -130q1 -109 25 -188t62 -129q38 -51 80 -75q43 -24 82 -24q48 1 85 32t57 88q21 56 22 132v0zM784 401v0
q-1 -98 -36 -176q-34 -77 -89 -132t-119 -84q-63 -30 -122 -30t-123 30q-64 29 -120 84q-55 55 -90 132q-35 78 -36 176q1 96 36 173t90 132q56 55 120 84t123 30q59 -1 122 -30q64 -30 119 -85t89 -132q35 -77 36 -172v0z" />
    <glyph glyph-name="Ocircumflex" unicode="&#xd4;" horiz-adv-x="830" 
d="M623 319v0q-1 103 -25 181q-23 77 -60 128q-38 52 -80 77q-43 26 -81 26q-47 -1 -85 -31q-38 -31 -59 -87q-22 -55 -23 -130q1 -109 25 -188t62 -129q38 -51 80 -75q43 -24 82 -24q48 1 85 32t57 88q21 56 22 132v0zM784 401v0q-1 -98 -36 -176q-34 -77 -89 -132
t-119 -84q-63 -30 -122 -30t-123 30q-64 29 -120 84q-55 55 -90 132q-35 78 -36 176q1 96 36 173t90 132q56 55 120 84t123 30q59 -1 122 -30q64 -30 119 -85t89 -132q35 -77 36 -172v0zM601 863l-6 -9l-177 87l-177 -87l-6 9l138 192h91l137 -192v0z" />
    <glyph glyph-name="Otilde" unicode="&#xd5;" horiz-adv-x="830" 
d="M623 319v0q-1 103 -25 181q-23 77 -60 128q-38 52 -80 77q-43 26 -81 26q-47 -1 -85 -31q-38 -31 -59 -87q-22 -55 -23 -130q1 -109 25 -188t62 -129q38 -51 80 -75q43 -24 82 -24q48 1 85 32t57 88q21 56 22 132v0zM784 401v0q-1 -98 -36 -176q-34 -77 -89 -132
t-119 -84q-63 -30 -122 -30t-123 30q-64 29 -120 84q-55 55 -90 132q-35 78 -36 176q1 96 36 173t90 132q56 55 120 84t123 30q59 -1 122 -30q64 -30 119 -85t89 -132q35 -77 36 -172v0zM608 1035v0q-21 -73 -38 -111q-18 -38 -36 -51q-18 -14 -39 -13q-26 1 -52 15t-50 28
q-23 14 -41 15q-35 0 -61 -16q-26 -15 -47 -39l-6 8q22 65 41 103q20 38 38 55q18 16 36 16q26 -1 50 -15t47 -27q22 -14 45 -15q36 0 62 15t45 39l6 -7v0z" />
    <glyph glyph-name="Odieresis" unicode="&#xd6;" horiz-adv-x="830" 
d="M623 319v0q-1 103 -25 181q-23 77 -60 128q-38 52 -80 77q-43 26 -81 26q-47 -1 -85 -31q-38 -31 -59 -87q-22 -55 -23 -130q1 -109 25 -188t62 -129q38 -51 80 -75q43 -24 82 -24q48 1 85 32t57 88q21 56 22 132v0zM784 401v0q-1 -98 -36 -176q-34 -77 -89 -132
t-119 -84q-63 -30 -122 -30t-123 30q-64 29 -120 84q-55 55 -90 132q-35 78 -36 176q1 96 36 173t90 132q56 55 120 84t123 30q59 -1 122 -30q64 -30 119 -85t89 -132q35 -77 36 -172v0zM392 997l-109 -111l-54 140l163 -29v0zM614 997l-111 -111l-54 140l165 -29v0z" />
    <glyph glyph-name="multiply" unicode="&#xd7;" horiz-adv-x="1024" 
d="M857 47l-8 -8l-337 225l-339 -225l-8 8l225 337l-225 337l8 8l339 -225l337 225l8 -8l-225 -337l225 -337v0z" />
    <glyph glyph-name="Oslash" unicode="&#xd8;" horiz-adv-x="835" 
d="M623 319v0q0 55 -8 103q-7 48 -20 89q-1 -1 -23 -25q-22 -23 -58 -60q-35 -37 -74 -78q-40 -42 -75 -79q-36 -37 -58 -60q-22 -24 -23 -25q39 -60 86 -88q47 -29 89 -29q48 1 85 32t57 88q21 56 22 132v0zM554 603v0q-39 64 -86 96q-48 32 -91 32q-47 -1 -85 -32
q-38 -30 -59 -86q-22 -55 -23 -130q1 -81 14 -145q14 -64 36 -112l294 377v0zM810 736l-95 -100q32 -49 50 -108t19 -127q-1 -98 -36 -176q-34 -77 -89 -132t-119 -84q-63 -30 -122 -30q-56 0 -117 26q-61 27 -115 77q-31 -32 -59 -61t-46 -48l-19 -19l-9 8l111 141
q-51 55 -82 130q-32 75 -33 168q1 96 36 173t90 132q56 55 120 84t123 30q55 -1 114 -27t112 -75l79 101l87 -83v0z" />
    <glyph glyph-name="Ugrave" unicode="&#xd9;" horiz-adv-x="828" 
d="M563 888l-6 -9l-270 91l102 94l174 -176v0zM736 276v0q0 -4 1 -9v-9q-1 -82 -43 -145q-43 -62 -116 -98q-72 -35 -163 -36q-97 1 -164 42q-66 40 -102 107q-35 67 -38 148l-21 523h190l-31 -514q0 -6 -1 -12v-11q1 -96 46 -151q44 -55 121 -56q40 1 75 31q34 30 59 83
q25 54 39 124l100 516h13l35 -533v0z" />
    <glyph glyph-name="Uacute" unicode="&#xda;" horiz-adv-x="828" 
d="M551 970l-270 -91l-7 9l175 176l102 -94v0zM736 276v0q0 -4 1 -9v-9q-1 -82 -43 -145q-43 -62 -116 -98q-72 -35 -163 -36q-97 1 -164 42q-66 40 -102 107q-35 67 -38 148l-21 523h190l-31 -514q0 -6 -1 -12v-11q1 -96 46 -151q44 -55 121 -56q40 1 75 31q34 30 59 83
q25 54 39 124l100 516h13l35 -533v0z" />
    <glyph glyph-name="Ucircumflex" unicode="&#xdb;" horiz-adv-x="828" 
d="M736 276v0q0 -4 1 -9v-9q-1 -82 -43 -145q-43 -62 -116 -98q-72 -35 -163 -36q-97 1 -164 42q-66 40 -102 107q-35 67 -38 148l-21 523h190l-31 -514q0 -6 -1 -12v-11q1 -96 46 -151q44 -55 121 -56q40 1 75 31q34 30 59 83q25 54 39 124l100 516h13l35 -533v0zM601 863
l-6 -9l-177 87l-177 -87l-6 9l138 193h91l137 -193v0z" />
    <glyph glyph-name="Udieresis" unicode="&#xdc;" horiz-adv-x="828" 
d="M736 276v0q0 -4 1 -9v-9q-1 -82 -43 -145q-43 -62 -116 -98q-72 -35 -163 -36q-97 1 -164 42q-66 40 -102 107q-35 67 -38 148l-21 523h190l-31 -514q0 -6 -1 -12v-11q1 -96 46 -151q44 -55 121 -56q40 1 75 31q34 30 59 83q25 54 39 124l100 516h13l35 -533v0zM392 997
l-109 -110l-55 139l164 -29v0zM613 997l-110 -110l-54 139l164 -29v0z" />
    <glyph glyph-name="Yacute" unicode="&#xdd;" horiz-adv-x="664" 
d="M477 969l-270 -91l-6 10l174 176l102 -95v0zM666 809l-227 -538l-25 -271h-132l-25 269l-271 508l187 42l155 -431l322 420l16 1v0z" />
    <glyph glyph-name="Thorn" unicode="&#xde;" horiz-adv-x="780" 
d="M541 484v0q1 43 -41 72t-136 30q-22 0 -46 -1q-24 -2 -51 -6v-27q-1 -27 -3 -69q-1 -42 -3 -90q-1 -47 -3 -89q-1 -43 -2 -69q-1 -27 -1 -28q85 18 141 50q56 33 88 72q32 40 45 80t12 75v0zM720 487v0q1 -47 -20 -95t-73 -91q-51 -42 -142 -73t-231 -43l-5 -185h-131
l-29 798h187l-6 -171q54 17 103 24q48 7 90 7q84 0 141 -24t87 -63q29 -38 29 -84v0z" />
    <glyph glyph-name="germandbls" unicode="&#xdf;" horiz-adv-x="733" 
d="M658 299v0q-1 -125 -104 -202t-300 -95l-6 18q100 48 152 91t70 85q19 42 18 87q1 22 -16 46q-16 24 -64 40q-47 17 -137 18h-9h-9v25q77 41 124 85q47 43 68 80q22 37 21 60q0 60 -24 89q-24 30 -66 30h-5h-5q-69 -6 -100 -73q-30 -67 -32 -188l-13 -495h-17h-38h-43
h-27l-24 477v10v10q1 77 25 135q25 58 68 98t98 62q54 21 114 25q8 0 15 1h14q75 -1 122 -23t68 -58q22 -35 22 -76q0 -33 -21 -71q-20 -37 -62 -73t-105 -64h7q76 0 125 -23q49 -22 72 -57q24 -35 24 -74v0z" />
    <glyph glyph-name="agrave" unicode="&#xe0;" horiz-adv-x="668" 
d="M401 129l-6 179q-24 -20 -60 -42q-37 -21 -71 -47q-34 -25 -52 -55q-7 -14 -11 -27q-3 -12 -3 -23q0 -22 12 -34q13 -13 37 -14q5 0 11 1q5 0 10 2q21 4 48 14q27 9 50 21q24 12 35 25v0zM635 82v0q-47 -44 -83 -70q-36 -25 -65 -25q-22 -1 -40 18q-18 18 -33 57
q-32 -27 -78 -46t-99 -25q-17 -2 -33 -3q-15 -1 -29 -1q-73 0 -109 26q-35 26 -35 77q0 12 2 26q2 13 6 28q12 40 50 72q37 31 88 56q50 25 98 45q48 21 79 41q32 19 33 39q1 44 -11 61t-43 16q-24 0 -71 -4q-46 -5 -102 -13t-108 -21l-5 10q29 27 72 51q43 25 92 44
q50 20 99 31t89 11q63 1 95 -12t43 -51t10 -112v-231v-28q-1 -36 6 -52q8 -17 32 -16q8 0 20 2q11 2 26 5l4 -6v0zM437 645l-6 -10l-270 92l102 94l174 -176v0z" />
    <glyph glyph-name="aacute" unicode="&#xe1;" horiz-adv-x="668" 
d="M401 129l-6 179q-24 -20 -60 -42q-37 -21 -71 -47q-34 -25 -52 -55q-7 -14 -11 -27q-3 -12 -3 -23q0 -22 12 -34q13 -13 37 -14q5 0 11 1q5 0 10 2q21 4 48 14q27 9 50 21q24 12 35 25v0zM635 82v0q-47 -44 -83 -70q-36 -25 -65 -25q-22 -1 -40 18q-18 18 -33 57
q-32 -27 -78 -46t-99 -25q-17 -2 -33 -3q-15 -1 -29 -1q-73 0 -109 26q-35 26 -35 77q0 12 2 26q2 13 6 28q12 40 50 72q37 31 88 56q50 25 98 45q48 21 79 41q32 19 33 39q1 44 -11 61t-43 16q-24 0 -71 -4q-46 -5 -102 -13t-108 -21l-5 10q29 27 72 51q43 25 92 44
q50 20 99 31t89 11q63 1 95 -12t43 -51t10 -112v-231v-28q-1 -36 6 -52q8 -17 32 -16q8 0 20 2q11 2 26 5l4 -6v0zM464 727l-270 -92l-6 10l174 176l102 -94v0z" />
    <glyph glyph-name="acircumflex" unicode="&#xe2;" horiz-adv-x="668" 
d="M401 129l-6 179q-24 -20 -60 -42q-37 -21 -71 -47q-34 -25 -52 -55q-7 -14 -11 -27q-3 -12 -3 -23q0 -22 12 -34q13 -13 37 -14q5 0 11 1q5 0 10 2q21 4 48 14q27 9 50 21q24 12 35 25v0zM635 82v0q-47 -44 -83 -70q-36 -25 -65 -25q-22 -1 -40 18q-18 18 -33 57
q-32 -27 -78 -46t-99 -25q-17 -2 -33 -3q-15 -1 -29 -1q-73 0 -109 26q-35 26 -35 77q0 12 2 26q2 13 6 28q12 40 50 72q37 31 88 56q50 25 98 45q48 21 79 41q32 19 33 39q1 44 -11 61t-43 16q-24 0 -71 -4q-46 -5 -102 -13t-108 -21l-5 10q29 27 72 51q43 25 92 44
q50 20 99 31t89 11q63 1 95 -12t43 -51t10 -112v-231v-28q-1 -36 6 -52q8 -17 32 -16q8 0 20 2q11 2 26 5l4 -6v0zM518 638l-6 -10l-177 87l-177 -87l-6 10l138 192h91l137 -192v0z" />
    <glyph glyph-name="atilde" unicode="&#xe3;" horiz-adv-x="668" 
d="M401 129l-6 179q-24 -20 -60 -42q-37 -21 -71 -47q-34 -25 -52 -55q-7 -14 -11 -27q-3 -12 -3 -23q0 -22 12 -34q13 -13 37 -14q5 0 11 1q5 0 10 2q21 4 48 14q27 9 50 21q24 12 35 25v0zM635 82v0q-47 -44 -83 -70q-36 -25 -65 -25q-22 -1 -40 18q-18 18 -33 57
q-32 -27 -78 -46t-99 -25q-17 -2 -33 -3q-15 -1 -29 -1q-73 0 -109 26q-35 26 -35 77q0 12 2 26q2 13 6 28q12 40 50 72q37 31 88 56q50 25 98 45q48 21 79 41q32 19 33 39q1 44 -11 61t-43 16q-24 0 -71 -4q-46 -5 -102 -13t-108 -21l-5 10q29 27 72 51q43 25 92 44
q50 20 99 31t89 11q63 1 95 -12t43 -51t10 -112v-231v-28q-1 -36 6 -52q8 -17 32 -16q8 0 20 2q11 2 26 5l4 -6v0zM514 811v0q-21 -73 -39 -111q-17 -38 -35 -51q-18 -14 -40 -13q-25 1 -51 15t-50 28t-42 15q-34 0 -61 -16q-26 -15 -46 -39l-7 8q22 65 42 103t38 55
q18 16 35 16q27 -1 51 -15t46 -27q23 -14 45 -15q36 0 62 15t46 39l6 -7v0z" />
    <glyph glyph-name="adieresis" unicode="&#xe4;" horiz-adv-x="668" 
d="M401 129l-6 179q-24 -20 -60 -42q-37 -21 -71 -47q-34 -25 -52 -55q-7 -14 -11 -27q-3 -12 -3 -23q0 -22 12 -34q13 -13 37 -14q5 0 11 1q5 0 10 2q21 4 48 14q27 9 50 21q24 12 35 25v0zM635 82v0q-47 -44 -83 -70q-36 -25 -65 -25q-22 -1 -40 18q-18 18 -33 57
q-32 -27 -78 -46t-99 -25q-17 -2 -33 -3q-15 -1 -29 -1q-73 0 -109 26q-35 26 -35 77q0 12 2 26q2 13 6 28q12 40 50 72q37 31 88 56q50 25 98 45q48 21 79 41q32 19 33 39q1 44 -11 61t-43 16q-24 0 -71 -4q-46 -5 -102 -13t-108 -21l-5 10q29 27 72 51q43 25 92 44
q50 20 99 31t89 11q63 1 95 -12t43 -51t10 -112v-231v-28q-1 -36 6 -52q8 -17 32 -16q8 0 20 2q11 2 26 5l4 -6v0zM295 769l-110 -111l-54 139l164 -28v0zM516 769l-110 -111l-55 139l165 -28v0z" />
    <glyph glyph-name="aring" unicode="&#xe5;" horiz-adv-x="668" 
d="M401 129l-6 179q-24 -20 -60 -42q-37 -21 -71 -47q-34 -25 -52 -55q-7 -14 -11 -27q-3 -12 -3 -23q0 -22 12 -34q13 -13 37 -14q5 0 11 1q5 0 10 2q21 4 48 14q27 9 50 21q24 12 35 25v0zM635 82v0q-47 -44 -83 -70q-36 -25 -65 -25q-22 -1 -40 18q-18 18 -33 57
q-32 -27 -78 -46t-99 -25q-17 -2 -33 -3q-15 -1 -29 -1q-73 0 -109 26q-35 26 -35 77q0 12 2 26q2 13 6 28q12 40 50 72q37 31 88 56q50 25 98 45q48 21 79 41q32 19 33 39q1 44 -11 61t-43 16q-24 0 -71 -4q-46 -5 -102 -13t-108 -21l-5 10q29 27 72 51q43 25 92 44
q50 20 99 31t89 11q63 1 95 -12t43 -51t10 -112v-231v-28q-1 -36 6 -52q8 -17 32 -16q8 0 20 2q11 2 26 5l4 -6v0zM438 864v0q-69 -13 -112 -43q-43 -31 -44 -78q0 -24 14 -40q13 -17 38 -17q19 1 32 17t14 38q0 16 -9 32q-10 16 -33 27l82 44q30 -27 44 -55q14 -29 14 -57
q0 -35 -18 -63q-18 -29 -48 -46t-67 -17q-64 1 -101 37q-38 35 -38 91q0 39 23 71q23 31 70 49q46 19 117 19h10h10l2 -9v0z" />
    <glyph glyph-name="ae" unicode="&#xe6;" horiz-adv-x="972" 
d="M408 132v0q-14 28 -20 61q-7 33 -7 71q0 9 1 17q1 9 1 18q-26 -18 -60 -39q-34 -20 -65 -44q-30 -24 -46 -52q-7 -14 -11 -27q-3 -12 -3 -24q0 -21 12 -33q13 -13 37 -14q5 0 11 1q5 0 11 1q22 6 48 15t50 21t41 28v0zM770 354v0q-6 41 -22 76t-42 57q-25 22 -60 23
q-32 0 -60 -27q-27 -28 -45 -84t-18 -143v-10q0 -5 1 -10l246 118v0zM941 270l-415 -49q8 -56 48 -97t122 -71q81 -30 214 -54l-4 -13q-16 0 -31 -1h-30q-156 0 -255 24q-98 23 -147 74q-23 -19 -56 -38q-34 -20 -72 -35q-39 -15 -78 -20q-17 -2 -33 -3q-15 -1 -29 -1
q-73 0 -109 26q-35 26 -35 78q0 12 2 26q2 13 6 28q12 40 50 72q38 31 88 56t98 46q48 20 80 40q31 19 32 39q1 45 -11 61q-12 17 -43 16q-24 0 -71 -4q-46 -4 -102 -13q-56 -8 -108 -21l-5 10q29 27 72 52q43 24 92 44q50 19 99 30q49 12 90 12q51 0 81 -8t45 -30
q25 18 52 28t53 10q54 0 107 -17q53 -16 97 -53q45 -37 73 -97t33 -147v0z" />
    <glyph glyph-name="ccedilla" unicode="&#xe7;" horiz-adv-x="616" 
d="M588 -2l-4 -11q-72 0 -132 3t-110 9l-28 -81q16 14 39 26q22 12 39 16q7 1 13 2q5 1 11 1q27 0 44 -16q18 -16 18 -49v-8q0 -4 -1 -9q-8 -61 -33 -85q-26 -25 -78 -25q-8 1 -16 1q-8 1 -17 2q-38 3 -75 18q-37 16 -61 39l4 8q21 -5 45 -9q24 -3 44 -3q9 0 16 1q7 0 13 2
q19 5 29 18q11 12 15 33q0 2 1 5v3q0 10 -6 15q-5 6 -14 6q-7 0 -16 -3q-9 -4 -19 -11l-77 14l12 105q-76 19 -121 52q-45 32 -65 81q-19 49 -19 116q1 100 32 171q31 72 86 110q54 38 124 39q93 -1 168 -20q75 -20 126 -49l-66 -136q-61 62 -112 96q-50 34 -100 35
q-30 0 -54 -24t-38 -80t-14 -150q-1 -69 39 -115q41 -46 128 -80q88 -33 230 -63v0z" />
    <glyph glyph-name="egrave" unicode="&#xe8;" horiz-adv-x="638" 
d="M448 354v0q-5 41 -24 76q-18 35 -47 57q-28 22 -63 23q-41 1 -71 -19t-46 -76q-16 -55 -16 -159v-10q0 -5 1 -10l266 118v0zM619 270l-435 -49q8 -56 51 -96q43 -39 129 -69q87 -30 224 -57l-4 -12q-157 -1 -262 14q-106 15 -168 47q-62 33 -89 86q-26 53 -26 130
q1 100 38 171q37 72 95 110q59 38 128 39q53 0 108 -17q54 -16 100 -53q47 -37 77 -97q29 -60 34 -147v0zM464 645l-6 -9l-270 91l102 94l174 -176v0z" />
    <glyph glyph-name="eacute" unicode="&#xe9;" horiz-adv-x="638" 
d="M448 354v0q-5 41 -24 76q-18 35 -47 57q-28 22 -63 23q-41 1 -71 -19t-46 -76q-16 -55 -16 -159v-10q0 -5 1 -10l266 118v0zM619 270l-435 -49q8 -56 51 -96q43 -39 129 -69q87 -30 224 -57l-4 -12q-157 -1 -262 14q-106 15 -168 47q-62 33 -89 86q-26 53 -26 130
q1 100 38 171q37 72 95 110q59 38 128 39q53 0 108 -17q54 -16 100 -53q47 -37 77 -97q29 -60 34 -147v0zM462 727l-270 -91l-6 9l174 176l102 -94v0z" />
    <glyph glyph-name="ecircumflex" unicode="&#xea;" horiz-adv-x="638" 
d="M448 354v0q-5 41 -24 76q-18 35 -47 57q-28 22 -63 23q-41 1 -71 -19t-46 -76q-16 -55 -16 -159v-10q0 -5 1 -10l266 118v0zM619 270l-435 -49q8 -56 51 -96q43 -39 129 -69q87 -30 224 -57l-4 -12q-157 -1 -262 14q-106 15 -168 47q-62 33 -89 86q-26 53 -26 130
q1 100 38 171q37 72 95 110q59 38 128 39q53 0 108 -17q54 -16 100 -53q47 -37 77 -97q29 -60 34 -147v0zM508 638l-6 -9l-177 87l-177 -87l-6 9l138 192h91l137 -192v0z" />
    <glyph glyph-name="edieresis" unicode="&#xeb;" horiz-adv-x="638" 
d="M448 354v0q-5 41 -24 76q-18 35 -47 57q-28 22 -63 23q-41 1 -71 -19t-46 -76q-16 -55 -16 -159v-10q0 -5 1 -10l266 118v0zM619 270l-435 -49q8 -56 51 -96q43 -39 129 -69q87 -30 224 -57l-4 -12q-157 -1 -262 14q-106 15 -168 47q-62 33 -89 86q-26 53 -26 130
q1 100 38 171q37 72 95 110q59 38 128 39q53 0 108 -17q54 -16 100 -53q47 -37 77 -97q29 -60 34 -147v0zM295 769l-109 -111l-54 139l163 -28v0zM517 769l-111 -111l-54 139l165 -28v0z" />
    <glyph glyph-name="igrave" unicode="&#xec;" horiz-adv-x="325" 
d="M253 570l-27 -570h-126l-27 570h180v0zM301 645l-6 -10l-270 92l102 94l174 -176v0z" />
    <glyph glyph-name="iacute" unicode="&#xed;" horiz-adv-x="325" 
d="M253 570l-27 -570h-126l-27 570h180v0zM303 727l-270 -92l-6 10l174 176l102 -94v0z" />
    <glyph glyph-name="icircumflex" unicode="&#xee;" horiz-adv-x="325" 
d="M253 570l-27 -570h-126l-27 570h180v0zM347 638l-6 -9l-177 87l-176 -87l-6 9l137 192h91l137 -192v0z" />
    <glyph glyph-name="idieresis" unicode="&#xef;" horiz-adv-x="325" 
d="M254 570l-27 -570h-126l-27 570h180v0zM134 769l-109 -111l-53 139l162 -28v0zM355 769l-110 -111l-54 139l164 -28v0z" />
    <glyph glyph-name="eth" unicode="&#xf0;" horiz-adv-x="665" 
d="M472 324v0q-30 33 -76 49q-47 17 -104 17q-49 0 -81 -40t-33 -125q1 -48 19 -87q19 -40 48 -63q30 -24 63 -25q40 1 78 36q37 35 62 93q24 58 25 127v9q-1 5 -1 9v0zM641 275v0q0 -53 -23 -105t-65 -95q-43 -43 -101 -69t-129 -27q-84 1 -151 38q-68 37 -107 97
q-40 60 -41 130q1 66 34 119q34 53 86 85q51 31 106 32q39 0 79 -11t75 -32q36 -20 62 -49q-23 56 -54 117q-31 62 -73 124l-283 -93l-3 10l249 136q-27 34 -58 67q-31 34 -67 66l8 7q47 -18 93 -44q47 -26 90 -60l176 96l42 -102l-152 -51q61 -57 107 -122q47 -65 73 -133
q27 -67 27 -131v0z" />
    <glyph glyph-name="ntilde" unicode="&#xf1;" horiz-adv-x="679" 
d="M613 393l-17 -393h-127l-16 351q-2 45 -9 69t-21 34q-14 9 -35 9q-16 0 -42 -6q-26 -5 -55 -17t-57 -29l-20 -411h-126l-27 570h180l-5 -108q32 36 73 63q42 28 86 43q45 15 87 16q50 0 79 -19q29 -18 41 -54t12 -89q0 -7 -1 -14v-15v0zM532 811v0q-21 -73 -39 -111
t-35 -51q-18 -14 -40 -13q-25 1 -51 15q-27 14 -50 28q-24 14 -42 15q-35 0 -61 -16q-27 -15 -47 -39l-6 8q22 65 41 103q20 38 38 55q18 16 36 16q26 -1 50 -15t47 -27q23 -14 45 -15q36 0 62 15t46 39l6 -7v0z" />
    <glyph glyph-name="ograve" unicode="&#xf2;" horiz-adv-x="678" 
d="M483 244v0q-1 91 -29 150q-28 58 -67 85q-40 28 -77 28t-62 -16q-26 -17 -39 -57q-13 -39 -13 -109q1 -84 29 -143t68 -90t78 -31q36 0 61 17t38 57t13 109v0zM639 284v0q-1 -67 -28 -122q-28 -55 -72 -94q-45 -39 -97 -60t-102 -21q-49 0 -102 21q-52 21 -97 60t-73 94
t-29 122q1 69 29 124t73 94t97 60q53 22 102 22q50 0 102 -22q52 -21 97 -60q44 -39 72 -94q27 -55 28 -124v0zM474 645l-7 -9l-270 91l102 94l175 -176v0z" />
    <glyph glyph-name="oacute" unicode="&#xf3;" horiz-adv-x="678" 
d="M483 244v0q-1 91 -29 150q-28 58 -67 85q-40 28 -77 28t-62 -16q-26 -17 -39 -57q-13 -39 -13 -109q1 -84 29 -143t68 -90t78 -31q36 0 61 17t38 57t13 109v0zM639 284v0q-1 -67 -28 -122q-28 -55 -72 -94q-45 -39 -97 -60t-102 -21q-49 0 -102 21q-52 21 -97 60t-73 94
t-29 122q1 69 29 124t73 94t97 60q53 22 102 22q50 0 102 -22q52 -21 97 -60q44 -39 72 -94q27 -55 28 -124v0zM470 727l-270 -91l-6 9l174 176l102 -94v0z" />
    <glyph glyph-name="ocircumflex" unicode="&#xf4;" horiz-adv-x="678" 
d="M483 244v0q-1 91 -29 150q-28 58 -67 85q-40 28 -77 28t-62 -16q-26 -17 -39 -57q-13 -39 -13 -109q1 -84 29 -143t68 -90t78 -31q36 0 61 17t38 57t13 109v0zM639 284v0q-1 -67 -28 -122q-28 -55 -72 -94q-45 -39 -97 -60t-102 -21q-49 0 -102 21q-52 21 -97 60t-73 94
t-29 122q1 69 29 124t73 94t97 60q53 22 102 22q50 0 102 -22q52 -21 97 -60q44 -39 72 -94q27 -55 28 -124v0zM524 638l-6 -9l-178 87l-177 -87l-6 9l138 192h91l138 -192v0z" />
    <glyph glyph-name="otilde" unicode="&#xf5;" horiz-adv-x="678" 
d="M483 244v0q-1 91 -29 150q-28 58 -67 85q-40 28 -77 28t-62 -16q-26 -17 -39 -57q-13 -39 -13 -109q1 -84 29 -143t68 -90t78 -31q36 0 61 17t38 57t13 109v0zM639 284v0q-1 -67 -28 -122q-28 -55 -72 -94q-45 -39 -97 -60t-102 -21q-49 0 -102 21q-52 21 -97 60t-73 94
t-29 122q1 69 29 124t73 94t97 60q53 22 102 22q50 0 102 -22q52 -21 97 -60q44 -39 72 -94q27 -55 28 -124v0zM527 811v0q-21 -73 -39 -111t-35 -51q-18 -14 -40 -13q-25 1 -52 15q-26 14 -49 28q-24 14 -42 15q-35 0 -61 -16q-26 -15 -47 -39l-6 8q22 65 41 103
q20 38 38 55q18 16 36 16q26 -1 50 -15t47 -27q23 -14 45 -15q36 0 62 15t46 39l6 -7v0z" />
    <glyph glyph-name="odieresis" unicode="&#xf6;" horiz-adv-x="678" 
d="M483 244v0q-1 91 -29 150q-28 58 -67 85q-40 28 -77 28t-62 -16q-26 -17 -39 -57q-13 -39 -13 -109q1 -84 29 -143t68 -90t78 -31q36 0 61 17t38 57t13 109v0zM639 284v0q-1 -67 -28 -122q-28 -55 -72 -94q-45 -39 -97 -60t-102 -21q-49 0 -102 21q-52 21 -97 60t-73 94
t-29 122q1 69 29 124t73 94t97 60q53 22 102 22q50 0 102 -22q52 -21 97 -60q44 -39 72 -94q27 -55 28 -124v0zM311 769l-110 -111l-54 139l164 -28v0zM532 769l-111 -111l-54 139l165 -28v0z" />
    <glyph glyph-name="divide" unicode="&#xf7;" horiz-adv-x="1024" 
d="M652 161l-167 -167l-82 210l249 -43v0zM902 380l-751 -90v181l751 -84v-7v0zM652 693l-167 -168l-82 211l249 -43v0z" />
    <glyph glyph-name="oslash" unicode="&#xf8;" horiz-adv-x="678" 
d="M483 244v0q0 32 -4 59q-4 28 -11 51q-1 0 -23 -21t-55 -52q-32 -31 -65 -63q-33 -31 -55 -52t-23 -22q28 -41 60 -62q33 -21 64 -21q36 0 61 17t38 57t13 109v0zM429 436v0q-26 36 -58 53q-32 18 -61 18q-37 0 -62 -16q-26 -17 -39 -57q-13 -39 -13 -109q0 -40 7 -74
q7 -35 19 -64l207 249v0zM639 284v0q-1 -67 -28 -122q-28 -55 -72 -94q-45 -39 -97 -60t-102 -21q-46 0 -94 18q-48 17 -91 51l-107 -100l-9 11l92 110q-41 38 -66 91q-25 52 -26 116q1 69 29 124t73 94t97 60q53 22 102 22q41 0 83 -14q43 -15 82 -42l55 67l79 -77
q0 -1 -18 -17q-17 -17 -43 -41q28 -37 44 -81q17 -44 17 -95v0z" />
    <glyph glyph-name="ugrave" unicode="&#xf9;" horiz-adv-x="689" 
d="M675 82v0q-45 -42 -83 -68q-39 -26 -68 -27q-27 -1 -43 25t-22 86q-21 -32 -56 -57q-34 -24 -74 -39q-39 -14 -76 -14q-62 0 -97 22t-51 66t-20 109l-27 385h176l-17 -377v-12q0 -45 19 -66q20 -20 68 -20q30 0 71 15q41 16 80 52l-28 408h174l-14 -393v-28q-1 -36 7 -52
q7 -17 31 -16q8 0 20 2q11 2 26 5l4 -6v0zM474 645l-7 -9l-270 91l102 94l175 -176v0z" />
    <glyph glyph-name="uacute" unicode="&#xfa;" horiz-adv-x="689" 
d="M675 82v0q-45 -42 -83 -68q-39 -26 -68 -27q-27 -1 -43 25t-22 86q-21 -32 -56 -57q-34 -24 -74 -39q-39 -14 -76 -14q-62 0 -97 22t-51 66t-20 109l-27 385h176l-17 -377v-12q0 -45 19 -66q20 -20 68 -20q30 0 71 15q41 16 80 52l-28 408h174l-14 -393v-28q-1 -36 7 -52
q7 -17 31 -16q8 0 20 2q11 2 26 5l4 -6v0zM471 727l-270 -91l-6 9l174 176l102 -94v0z" />
    <glyph glyph-name="ucircumflex" unicode="&#xfb;" horiz-adv-x="689" 
d="M675 82v0q-45 -42 -83 -68q-39 -26 -68 -27q-27 -1 -43 25t-22 86q-21 -32 -56 -57q-34 -24 -74 -39q-39 -14 -76 -14q-62 0 -97 22t-51 66t-20 109l-27 385h176l-17 -377v-12q0 -45 19 -66q20 -20 68 -20q30 0 71 15q41 16 80 52l-28 408h174l-14 -393v-28q-1 -36 7 -52
q7 -17 31 -16q8 0 20 2q11 2 26 5l4 -6v0zM529 638l-6 -9l-178 87l-177 -87l-6 9l138 192h92l137 -192v0z" />
    <glyph glyph-name="udieresis" unicode="&#xfc;" horiz-adv-x="689" 
d="M675 82v0q-45 -42 -83 -68q-39 -26 -68 -27q-27 -1 -43 25t-22 86q-21 -32 -56 -57q-34 -24 -74 -39q-39 -14 -76 -14q-62 0 -97 22t-51 66t-20 109l-27 385h176l-17 -377v-12q0 -45 19 -66q20 -20 68 -20q30 0 71 15q41 16 80 52l-28 408h174l-14 -393v-28q-1 -36 7 -52
q7 -17 31 -16q8 0 20 2q11 2 26 5l4 -6v0zM318 769l-110 -111l-54 139l164 -28v0zM539 769l-111 -111l-54 139l165 -28v0z" />
    <glyph glyph-name="yacute" unicode="&#xfd;" horiz-adv-x="612" 
d="M602 579l-295 -814l-172 74l146 236l-253 464l178 44l131 -416l251 412h14v0zM446 727l-271 -92l-6 10l174 176l103 -94v0z" />
    <glyph glyph-name="thorn" unicode="&#xfe;" horiz-adv-x="685" 
d="M492 346v0q0 69 -24 100q-23 31 -68 31q-40 0 -80 -6q-39 -7 -80 -22l-11 -409q97 35 155 82q58 48 83 105t25 119v0zM645 354v0q0 -107 -52 -182q-52 -76 -145 -120q-94 -45 -221 -59l-5 -190h-125l-27 995h179l-8 -301q27 23 63 43q36 19 75 31q38 12 74 12
q97 0 145 -60q47 -59 47 -169v0z" />
    <glyph glyph-name="ydieresis" unicode="&#xff;" horiz-adv-x="612" 
d="M602 579l-295 -814l-172 74l146 236l-253 464l178 44l131 -416l251 412h14v0zM281 769l-110 -111l-54 139l164 -28v0zM502 769l-111 -111l-54 139l165 -28v0z" />
    <glyph glyph-name="dotlessi" unicode="&#x131;" horiz-adv-x="325" 
d="M253 570l-27 -570h-126l-27 570h180v0z" />
    <glyph glyph-name="Lslash" unicode="&#x141;" horiz-adv-x="649" 
d="M619 111l-1 -13l-499 -96l-12 339q-1 0 -15 -5q-14 -4 -32 -10q-19 -6 -33 -10l-14 -5v7l93 61l-16 419h190l-15 -312l132 87v-139l-136 -43l-10 -225l368 -55v0z" />
    <glyph glyph-name="lslash" unicode="&#x142;" horiz-adv-x="403" 
d="M371 407l-99 -34l-14 -373h-135l-11 318l-99 -34v8l97 69l-15 437h192l-11 -319l95 67v-139v0z" />
    <glyph glyph-name="OE" unicode="&#x152;" horiz-adv-x="983" 
d="M490 254l-9 221q-15 85 -43 142t-63 85q-35 29 -71 29q-38 -1 -62 -32q-24 -30 -35 -86q-11 -55 -11 -130q1 -146 29 -238q27 -91 69 -135q42 -43 84 -43q47 1 75 51q29 49 37 136v0zM942 79l-441 -90l-2 50q-32 -30 -72 -45q-39 -15 -84 -15q-49 0 -101 30
q-53 29 -99 84q-45 55 -74 132q-28 78 -29 176q1 128 42 221q41 94 108 146q68 51 149 52q35 0 68 -12q32 -12 61 -34l-1 24h168l-2 -74l291 84v-165l-292 34l-5 -255l250 73v-163l-251 45l-5 -245l321 -43v-10v0z" />
    <glyph glyph-name="oe" unicode="&#x153;" horiz-adv-x="1024" 
d="M435 244v0q-1 91 -23 150q-23 58 -55 85q-33 28 -64 28q-27 0 -53 -21q-26 -20 -43 -61q-17 -40 -18 -100q1 -84 23 -143t59 -90q38 -31 85 -31q20 1 40 24t35 64q14 41 14 95v0zM825 354v0q-6 41 -22 76t-42 57q-25 22 -60 23q-32 0 -59 -27q-28 -28 -46 -84t-18 -143
v-10q0 -5 1 -10l246 118v0zM996 270l-415 -49q8 -56 48 -97t122 -71t214 -54l-4 -13q-16 -1 -32 -1h-32q-143 0 -236 20q-94 20 -146 62q-38 -38 -86 -59t-99 -21q-50 0 -102 21t-98 60q-45 39 -73 94q-27 55 -28 122q1 69 28 124q28 55 73 94q46 39 98 60q52 22 102 22
q46 0 93 -22q48 -22 88 -63q34 34 78 59t97 26q54 0 107 -17q53 -16 97 -53q45 -37 73 -97t33 -147v0z" />
    <glyph glyph-name="Scaron" unicode="&#x160;" horiz-adv-x="733" 
d="M668 211v0q-8 -88 -50 -139t-107 -72t-140 -21q-55 0 -116 28q-61 27 -119 83q-58 55 -103 139l7 7q56 -43 119 -73q64 -31 120 -47q56 -17 91 -17q49 0 81 23q33 23 39 74v4q-1 22 -31 47q-30 26 -77 54q-47 29 -99 60q-53 32 -100 66t-77 72q-30 37 -31 76v9q1 4 1 8
q13 69 55 120t102 79q59 28 125 29q65 0 140 -20t154 -57l-57 -167q-79 78 -137 115q-59 37 -108 37q-56 0 -85 -28t-33 -90v-3q1 -28 32 -55q31 -28 81 -56q49 -28 105 -59q55 -30 105 -64q49 -34 80 -72q32 -38 33 -82v-4v-4v0zM545 1047l-137 -192h-91l-138 192l6 9
l177 -87l177 87l6 -9v0z" />
    <glyph glyph-name="scaron" unicode="&#x161;" horiz-adv-x="591" 
d="M554 163v0q4 -13 6 -25q3 -12 3 -23q0 -60 -61 -94q-60 -33 -179 -34q-63 1 -119 24q-57 23 -104 64t-82 96l8 10q64 -50 135 -78q71 -27 140 -28q47 1 73 13q25 11 26 30q0 3 -1 5q-1 3 -1 6q-12 28 -50 55q-39 28 -91 58q-53 30 -107 68q-55 37 -99 85q-11 14 -17 28
q-6 15 -6 30q0 33 24 63q23 29 66 48q42 19 100 20q70 -1 133 -12q62 -11 111 -29q50 -18 79 -39l-70 -126q-27 27 -68 53q-40 27 -82 46q-42 20 -75 26q-8 1 -15 1q-7 1 -14 1q-33 -1 -52 -12q-20 -11 -21 -28q0 -8 5 -16q5 -9 16 -17q21 -16 62 -36q41 -21 92 -46
q50 -25 99 -54q49 -30 85 -63q37 -33 51 -70v0zM481 825l-138 -192h-91l-138 192l6 9l177 -87l178 87l6 -9v0z" />
    <glyph glyph-name="Ydieresis" unicode="&#x178;" horiz-adv-x="664" 
d="M666 809l-227 -538l-25 -271h-132l-25 269l-271 508l187 42l155 -431l322 420l16 1v0zM305 997l-109 -110l-54 139l163 -29v0zM527 997l-111 -110l-54 139l165 -29v0z" />
    <glyph glyph-name="Zcaron" unicode="&#x17d;" horiz-adv-x="725" 
d="M687 64l-589 -76l-39 128l404 639l-374 -122v165h594l-483 -664l487 -55v-15v0zM551 1047l-137 -192h-91l-138 192l6 10l177 -88l177 88l6 -10v0z" />
    <glyph glyph-name="zcaron" unicode="&#x17e;" horiz-adv-x="591" 
d="M574 57l-515 -71l-21 113l315 421l-293 -96v146h500l-381 -455l395 -47v-11v0zM481 825l-138 -192h-91l-138 192l6 9l177 -87l177 87l7 -9v0z" />
    <glyph glyph-name="uni01C0" unicode="&#x1c0;" horiz-adv-x="353" 
d="M239 -24l-125 1v845h125v-846v0z" />
    <glyph glyph-name="endash" unicode="&#x2013;" horiz-adv-x="512" 
d="M512 233h-512v70h512v-70v0z" />
    <glyph glyph-name="uni2015" unicode="&#x2015;" horiz-adv-x="1024" 
d="M1024 340h-1024v88h1024v-88v0z" />
    <glyph glyph-name="trademark" unicode="&#x2122;" horiz-adv-x="870" 
d="M828 798l-10 -431h-86l-27 290l-98 -257h-11l-100 255l-59 -296h-9l-48 439h137l94 -253l79 253h138v0zM371 733l-112 -20l-19 -346h-93l-17 324l-105 -19v126l346 -57v-8v0z" />
    <glyph glyph-name="infinity" unicode="&#x221e;" horiz-adv-x="1024" 
d="M450 383v0q-1 2 -1 7q-1 5 -2 9q-10 30 -30 60t-47 51q-26 20 -55 21q-36 -1 -57 -24q-21 -24 -30 -58q-10 -34 -10 -66q1 -32 15 -65q15 -34 41 -57q26 -24 61 -25q29 1 49 21q21 19 35 48q15 29 26 58q2 6 3 11q1 6 2 9v0zM806 383v0q0 32 -14 66q-15 34 -41 58
q-26 23 -62 24q-29 -1 -51 -24t-37 -53q-14 -30 -21 -54q-1 -4 -3 -9q-1 -5 -2 -8q1 -4 2 -10q2 -6 4 -11q10 -26 30 -55q19 -29 45 -49q25 -21 54 -22q35 1 56 25q21 23 31 57q9 33 9 65v0zM932 382v0q0 -51 -22 -93q-21 -42 -57 -73q-35 -31 -76 -48q-41 -18 -81 -18
q-37 1 -73 17q-37 15 -66 40q-29 24 -45 51q-18 -29 -48 -53t-65 -39q-36 -15 -70 -16q-41 0 -83 18q-41 17 -76 48t-56 73t-22 93q1 49 24 92q23 42 59 73q36 32 77 49q40 18 77 18q38 0 74 -16t65 -39q29 -24 45 -49q15 24 43 48q29 24 66 40q36 16 74 16q37 0 78 -18
q41 -17 77 -49q36 -31 58 -73q23 -43 23 -92v0z" />
    <glyph glyph-name="uni2605" unicode="&#x2605;" horiz-adv-x="1024" 
d="M1020 525l-314 -225l110 -371l-304 226l-304 -226l111 371l-315 225h389l119 368l119 -368h389v0z" />
    <glyph glyph-name="uni2606" unicode="&#x2606;" horiz-adv-x="1024" 
d="M820 460h-237l-73 224l-70 -224h-239l190 -134l-68 -229l189 139l188 -139l-67 229l187 134v0zM1020 525l-314 -225l110 -371l-304 227l-304 -227l111 371l-315 225h389l119 368l119 -368h389v0z" />
    <glyph glyph-name="musicalnote" unicode="&#x266a;" horiz-adv-x="1024" 
d="M625 499v0q-17 15 -39 30q-22 16 -43 28q-20 13 -32 18v-412q1 -30 -5 -64q-5 -33 -19 -64q-15 -32 -42 -53q-32 -23 -61 -34t-54 -11q-44 1 -69 26q-25 24 -25 59q0 13 3 25t10 25q22 39 55 61t67 32q33 10 55 13q23 2 24 2v665h36q2 -29 26 -58q24 -30 60 -61
q37 -31 78 -66q41 -34 77 -73t59 -84t23 -97q1 -42 -18 -89t-62 -101q-44 -53 -115 -113l-18 16q58 70 85 127q27 56 27 103q0 43 -22 80q-21 37 -61 70v0z" />
    <glyph glyph-name="uniFF0B" unicode="&#xff0b;" horiz-adv-x="1024" 
d="M921 379l-332 -75l-70 -320h-14l-79 320l-325 75v10l325 70l79 316h14l70 -316l332 -70v-10v0z" />
    <glyph glyph-name="uniFF5E" unicode="&#xff5e;" horiz-adv-x="1024" 
d="M891 454v0q-48 -60 -87 -94q-40 -34 -72 -48q-31 -14 -56 -13q-26 0 -70 12q-44 11 -94 25q-50 15 -93 26q-42 11 -63 11q-27 0 -67 -12t-79 -29t-62 -33l-8 8q53 60 94 94q42 33 72 47q31 14 51 13q25 0 68 -11q44 -10 93 -24t92 -25q42 -11 66 -11q28 0 67 12
q39 11 77 27q37 17 61 32l10 -7v0z" />
  </font>
</defs>
</svg>
